<mxfile host="Electron" modified="2023-10-24T13:02:47.290Z" agent="Mozilla/5.0 (Windows NT 10.0; Win64; x64) AppleWebKit/537.36 (KHTML, like Gecko) draw.io/22.0.3 Chrome/114.0.5735.289 Electron/25.8.4 Safari/537.36" etag="BKX1S0sfhGCEJbm-fYRb" version="22.0.3" type="device">
  <diagram name="Seite-1" id="iixy-6nqUFneeifkv6rc">
    <mxGraphModel dx="1098" dy="988" grid="1" gridSize="10" guides="1" tooltips="1" connect="1" arrows="1" fold="1" page="1" pageScale="1" pageWidth="827" pageHeight="1169" math="0" shadow="0">
      <root>
        <mxCell id="0" />
        <mxCell id="1" parent="0" />
        <mxCell id="J2iS7uUSkjCVjI6-2-KG-9" value="" style="rounded=1;whiteSpace=wrap;html=1;" vertex="1" parent="1">
          <mxGeometry x="476" y="460" width="266" height="510" as="geometry" />
        </mxCell>
        <mxCell id="f17yIpiy9WY4nrxllK0p-4" value="" style="rounded=0;whiteSpace=wrap;html=1;" parent="1" vertex="1">
          <mxGeometry x="30" y="20" width="780" height="60" as="geometry" />
        </mxCell>
        <mxCell id="f17yIpiy9WY4nrxllK0p-5" value="Header" style="text;strokeColor=none;fillColor=none;html=1;fontSize=24;fontStyle=1;verticalAlign=middle;align=center;" parent="1" vertex="1">
          <mxGeometry x="364" y="30" width="100" height="40" as="geometry" />
        </mxCell>
        <mxCell id="f17yIpiy9WY4nrxllK0p-7" value="" style="sketch=0;pointerEvents=1;shadow=0;dashed=0;html=1;strokeColor=none;fillColor=#505050;labelPosition=center;verticalLabelPosition=bottom;verticalAlign=top;outlineConnect=0;align=center;shape=mxgraph.office.concepts.home;" parent="1" vertex="1">
          <mxGeometry x="50" y="32" width="39" height="38" as="geometry" />
        </mxCell>
        <mxCell id="f17yIpiy9WY4nrxllK0p-8" value="" style="shape=rect;fillColor=#e0e0e0;strokeColor=none;" parent="1" vertex="1">
          <mxGeometry x="630" y="40" width="164" height="20" as="geometry" />
        </mxCell>
        <mxCell id="f17yIpiy9WY4nrxllK0p-9" value="" style="html=1;strokeWidth=1;shadow=0;dashed=0;shape=mxgraph.ios7ui.marginRect;rx=3;ry=3;rectMargin=5;strokeColor=none;" parent="f17yIpiy9WY4nrxllK0p-8" vertex="1">
          <mxGeometry width="164" height="20" as="geometry" />
        </mxCell>
        <mxCell id="f17yIpiy9WY4nrxllK0p-10" value="Search" style="shape=mxgraph.ios7.icons.looking_glass;strokeColor=#e0e0e0;fillColor=none;fontColor=#e0e0e0;labelPosition=right;verticalLabelPosition=middle;align=left;verticalAlign=middle;fontSize=6;fontStyle=0;spacingTop=2;sketch=0;html=1;" parent="f17yIpiy9WY4nrxllK0p-8" vertex="1">
          <mxGeometry x="0.5" y="0.5" width="6" height="6" relative="1" as="geometry">
            <mxPoint x="-17" y="-3" as="offset" />
          </mxGeometry>
        </mxCell>
        <mxCell id="f17yIpiy9WY4nrxllK0p-11" value="load animation&lt;br&gt;max 10 pieces load&lt;br&gt;hover auf pokemon -&amp;gt; startseite&lt;br&gt;like button pokemon&lt;br&gt;scroll to top icon&lt;br&gt;left - right card open&lt;br&gt;&lt;br&gt;&lt;br&gt;" style="text;html=1;strokeColor=none;fillColor=none;align=center;verticalAlign=middle;whiteSpace=wrap;rounded=0;" parent="1" vertex="1">
          <mxGeometry x="870" y="20" width="250" height="250" as="geometry" />
        </mxCell>
        <mxCell id="f17yIpiy9WY4nrxllK0p-12" value="" style="rounded=1;whiteSpace=wrap;html=1;" parent="1" vertex="1">
          <mxGeometry x="98" y="170" width="90" height="120" as="geometry" />
        </mxCell>
        <mxCell id="f17yIpiy9WY4nrxllK0p-13" value="" style="rounded=1;whiteSpace=wrap;html=1;" parent="1" vertex="1">
          <mxGeometry x="208" y="170" width="90" height="120" as="geometry" />
        </mxCell>
        <mxCell id="f17yIpiy9WY4nrxllK0p-14" value="" style="rounded=1;whiteSpace=wrap;html=1;" parent="1" vertex="1">
          <mxGeometry x="317" y="170" width="90" height="120" as="geometry" />
        </mxCell>
        <mxCell id="f17yIpiy9WY4nrxllK0p-18" value="" style="rounded=1;whiteSpace=wrap;html=1;" parent="1" vertex="1">
          <mxGeometry x="433" y="170" width="90" height="120" as="geometry" />
        </mxCell>
        <mxCell id="f17yIpiy9WY4nrxllK0p-19" value="" style="rounded=1;whiteSpace=wrap;html=1;" parent="1" vertex="1">
          <mxGeometry x="543" y="170" width="90" height="120" as="geometry" />
        </mxCell>
        <mxCell id="f17yIpiy9WY4nrxllK0p-20" value="" style="rounded=1;whiteSpace=wrap;html=1;" parent="1" vertex="1">
          <mxGeometry x="652" y="170" width="90" height="120" as="geometry" />
        </mxCell>
        <mxCell id="f17yIpiy9WY4nrxllK0p-21" value="" style="rounded=1;whiteSpace=wrap;html=1;" parent="1" vertex="1">
          <mxGeometry x="98" y="310" width="90" height="120" as="geometry" />
        </mxCell>
        <mxCell id="f17yIpiy9WY4nrxllK0p-22" value="" style="rounded=1;whiteSpace=wrap;html=1;" parent="1" vertex="1">
          <mxGeometry x="208" y="310" width="90" height="120" as="geometry" />
        </mxCell>
        <mxCell id="f17yIpiy9WY4nrxllK0p-23" value="" style="rounded=1;whiteSpace=wrap;html=1;" parent="1" vertex="1">
          <mxGeometry x="317" y="310" width="90" height="120" as="geometry" />
        </mxCell>
        <mxCell id="f17yIpiy9WY4nrxllK0p-24" value="" style="rounded=1;whiteSpace=wrap;html=1;" parent="1" vertex="1">
          <mxGeometry x="433" y="310" width="90" height="120" as="geometry" />
        </mxCell>
        <mxCell id="f17yIpiy9WY4nrxllK0p-25" value="" style="rounded=1;whiteSpace=wrap;html=1;" parent="1" vertex="1">
          <mxGeometry x="543" y="310" width="90" height="120" as="geometry" />
        </mxCell>
        <mxCell id="f17yIpiy9WY4nrxllK0p-26" value="" style="rounded=1;whiteSpace=wrap;html=1;" parent="1" vertex="1">
          <mxGeometry x="652" y="310" width="90" height="120" as="geometry" />
        </mxCell>
        <mxCell id="J2iS7uUSkjCVjI6-2-KG-1" value="" style="rounded=1;whiteSpace=wrap;html=1;" vertex="1" parent="1">
          <mxGeometry x="103" y="470" width="242" height="210" as="geometry" />
        </mxCell>
        <mxCell id="J2iS7uUSkjCVjI6-2-KG-7" value="Grey 2&#xa;&#xa;R: 217&#xa;G: 217&#xa;B: 217&#xa;&#xa; #d9d9d9" style="align=left;verticalAlign=middle;fontFamily=Tahoma;fillColor=#d9d9d9;strokeColor=none;fontColor=#ffffff;strokeWidth=2;html=1;whiteSpace=wrap;spacing=6;fontStyle=0" vertex="1" parent="1">
          <mxGeometry x="205" y="558.13" width="128" height="116.25" as="geometry" />
        </mxCell>
        <mxCell id="J2iS7uUSkjCVjI6-2-KG-2" value="Name" style="text;strokeColor=none;fillColor=none;html=1;fontSize=24;fontStyle=1;verticalAlign=middle;align=center;" vertex="1" parent="1">
          <mxGeometry x="113" y="490" width="100" height="40" as="geometry" />
        </mxCell>
        <mxCell id="J2iS7uUSkjCVjI6-2-KG-3" value="" style="verticalLabelPosition=bottom;sketch=0;html=1;fillColor=#6ABD46;strokeColor=#ffffff;verticalAlign=top;align=center;points=[[0.085,0.085,0],[0.915,0.085,0],[0.915,0.915,0],[0.085,0.915,0],[0.25,0,0],[0.5,0,0],[0.75,0,0],[1,0.25,0],[1,0.5,0],[1,0.75,0],[0.75,1,0],[0.5,1,0],[0.25,1,0],[0,0.75,0],[0,0.5,0],[0,0.25,0]];pointerEvents=1;shape=mxgraph.cisco_safe.compositeIcon;bgIcon=mxgraph.cisco_safe.architecture.generic_appliance;resIcon=mxgraph.cisco_safe.architecture.blade_server;" vertex="1" parent="1">
          <mxGeometry x="224" y="570.01" width="90" height="92.5" as="geometry" />
        </mxCell>
        <mxCell id="J2iS7uUSkjCVjI6-2-KG-4" value="&lt;font style=&quot;font-size: 16px;&quot;&gt;Type&lt;/font&gt;" style="text;strokeColor=none;fillColor=none;html=1;fontSize=24;fontStyle=1;verticalAlign=middle;align=center;" vertex="1" parent="1">
          <mxGeometry x="98" y="576.26" width="100" height="40" as="geometry" />
        </mxCell>
        <mxCell id="J2iS7uUSkjCVjI6-2-KG-5" value="&lt;font style=&quot;font-size: 16px;&quot;&gt;Type&lt;/font&gt;" style="text;strokeColor=none;fillColor=none;html=1;fontSize=24;fontStyle=1;verticalAlign=middle;align=center;" vertex="1" parent="1">
          <mxGeometry x="98" y="616.26" width="100" height="40" as="geometry" />
        </mxCell>
        <mxCell id="J2iS7uUSkjCVjI6-2-KG-6" value="&lt;font style=&quot;font-size: 16px;&quot;&gt;#0010&lt;br&gt;&lt;/font&gt;" style="text;strokeColor=none;fillColor=none;html=1;fontSize=24;fontStyle=1;verticalAlign=middle;align=right;" vertex="1" parent="1">
          <mxGeometry x="235" y="490" width="100" height="40" as="geometry" />
        </mxCell>
        <mxCell id="J2iS7uUSkjCVjI6-2-KG-14" value="" style="shape=image;verticalLabelPosition=bottom;labelBackgroundColor=default;verticalAlign=top;aspect=fixed;imageAspect=0;image=data:image/png,iVBORw0KGgoAAAANSUhEUgAAATMAAAFNCAYAAABscIjvAAAgAElEQVR4nNS9ebgtyVHY+YusqnPu8t5d3v66X69PUktqqbUgqYWEhDYQSAYxgwUz2Pq8zNjYg5cxNgaGbwYb47G/b8zY3+Cxxx5jsI3tMTbGCBtkLWBoA5LaLRqpWy2p9/e6377f9ZxTlTF/1Fnq5Mmsyjr3doOjv9e3Ti4RkRGZkRFZmVly9affqzSCABHF9rVcLK6Xu25d/l7o+nBIJV2dMm5aLM66/Hn599Vzce6HbEaoBXReHbj5VVm6sm/JrwA6rDd+HsG8+nPKTuF1ed3P/ueT0z7pL4p+G5plOeNNb6zoFnQ7RBMSjSzj0vXRdnnw1Q2Bj9cQb6EOWNdhG4XpAXWelVadPlp/IdpCe949/Ik6eVW5NuhPGmhrtbN79Nda7C6vHp6i0ajz3FJ/XqSV+uor58p43r5XwSUuz3X6c+g16a9aTyr4pDIR1NWZgZLXWWOmPqbqZl2XSA0zUn2IVXDTLNbSS5nhraGeBH9M6nuVV+2EIUMTqfSqwseyc+U8GkSx+nPpV/UXGIBz2be6wTfKd/qD1kx2M7KueCzjpKoMaujM8OKm75P+ZhmM46PWKAxlNO4bVV036c9njJrZqc+syCpafzox+sJkkpryPKt9td5umFIgrqClwtQUJ8wKypfmc6mryU1hQLWci9dtkM8brJmdfK7/lLFw+JviOWAUgiHPqEx1tp5ipqHeqFi1zS5vPv0N0+fVn7p1Itj1lZ+p5OvkjsGoxeXy0OSxUKO/Ju8lZoD7BBKaKOom4xDvHv2JQ1clPPm4fATHX5NimxyGil5nPLpIUiH9jZND429Sz5TW0de4Gus6RhQoF+pwjeAqvWlWr6a5gybWvR8VC7XX573U8eKWrevw1My+ocnBU85rTGM6aJ0h8eFp8kT2oj9fWpu+U9VfiIcm78iFJs+Wiv7csi3016adUyH2sG60F9XGk/ThiKgf5bDUVpx+1jr+p2VnJmViOp4ryNHPFozXysMVWizeueKfyLzYTtmGTrVY7OweKkON/tzyvk6pLfSnc+ivbjLw8VZTZMxDzATgS2urvzpPZPToixZq9Ncm1JvJb2sgXGjSn4+XmAp70V9MX6/Unao3Xbc0Zhrq6D5m3MQGJtyB5m2ziydGaXVCiOkYMeWa8DV5WK7BGUFT+1p2Wo3pfL6JqSYcn0Ln6G/GeNbpL+Qx1fHrC/F8fSjA+4wuJPAzRn8yU9TDXPi3i3cue+QzlpH6G5ev0BdpkFEb/TXQG6Nx9VfTZ0QcFD79VSeb0kCaWSYDDHtfM2ttlUlek5uq/jJRjknbcGRUp242qRq7yI7SFOrN1YljvUhHsW3x1q35+fQ3lebSr0Ct/qoDxKnr9TR9fTRAV92+5La3+tCkv4g+HgSt8bxrDGB02RYe9RgXJU/epSUP6RB412mr9Zr0N/ztiwpUKwbPg3/q56RPmmauR/khF89lJnbG9tFwytSOZTeEaYI6XtwZzh0sdeHGXl3/CK9vbhyh/BpDUourrcdYU29Kfz7vpQ1fo/y6ARSCpjJtZetL9/EVq98YLz5mXDXh8sgvVn9u2BjUn2ecNXnZjTAZq2biso1wxiB0PamQu+j8jmLKB3sJJav4Qx5iwGiJT1lV/D4j4aY3hYB1hjIEbnjk6q8pNApNTE5em/1CbWGqSsh7CZUJyTGgvyADISPfZoKJ0Z9vYNdFK67+2rSjpm/U4mg5MU91GV9bI8fYTL6bVsfAdDhqZuuH3O2mENEND0MKc8p50cYaqjkMQeMAreTXLs67wq92iAa+JNjwMC8ztGcfy9++0KgphHH0NCbrpBumDfzsLsWyqBnmBW2CDOtroJwnbBmVm0t/vv4X0p9LP/Q8j/5GyTHeFs36E5/+6oxoBG9R+cL0OrsLbeXko9vkQAzbrZPy6aScBAZvLIwM2sh1dOPeajnQROgXSkcEaRR6jMWOUWTIBa7ke8nFdJAW6dFy9rV7nlAqFr+TXNWfwNkNJQVOHoDLu8pmX7n74ER/msD5TXjhWvn7rsNwbFmQotI3DGzlyrPXlFvbwqEDcM8h6BoB68g5gYGFyzuw04cTS8JyWtfmgP72JdxsU77BIwoec2rLQkPdqRAu1JdCk2+dN+kpn1SKQalLWymbVPIY5lkXyTxymfCUTgxQ7Ozty6tjYDZNuoYvPLvLP/zkNf7kB9Z5890LkMfMhnX0dToZj3EWdRTs0tA5+pbPA22S5bzgq78XmpH6G8rzx38J7r8d/tz74Kd/C85cFX7yu0sjJJnyhTPC3/4EnL8FhYV71+HPfFB50+1AURqya334e78Kv/64UCSwIPDhN8L3jY4Ijzp4Krx4S/lXn4fPfgU6Fv7idypvOlkpU/UkRx5po3jrBqlPlm5+yAuqpoUGvW8sNemvDmI9MfWUlUp6XV0Pz2NU5YN0lWsbwiNn4do2nFiBN98BB7pALtBRLl2HR8/BjW248xA8cAqW0mF+VX+1UJ+f1hYYEwk0WHydp0Y4CnQNXz7f4wd/9jy/+9VNvv7Vi3zd6UU0D3WougHsZTjsAmvwxyyOIDTlx85ooc5VB77yNfSmvG0P/lj9Gbi2pXzxRXjXfdAr4Gvn4fgqmERR4OaW8CO/AImFH/0wJAn8bx+H/+dT8Ne/RzmSGDDKZx6Hn/s8/LF3wofvF/7FI8rf/zTceRS+/Q2gvZLvKz3LX/tF4aEn4UNvgAfvhFMrbhN0Vix7nlDmzasahzqj0sTLfugvzqmYpPuWM2KMPkgXHnlW+MF/C1duwvIS3NiA19wGP/oReP29lk88LPz4L5fe9UIXbm7AO++DH/mwcseawEAdFuab9NPa3NDgHwm5Yp0nPNQIoWP4ysUeP/xPL/LUC33+/Hcc54+8Yw0duHWqnaKNYir5rcPmUIzu4y30O9T2JjffqevMfDMDVKRGBJWM0EBooz8RJFUubsPVm/Cqk3BtoFzZFD78gICxgPDQU/D8efhr3wXvfp0iXfjem8Lf/TV4/rxw5G7lak/59OPCG+6C7/+QglH+5KrwW0/DLzwC33wfdBOQruXffFp45Az8lY/Ad7295En7AkWo3T5P22fY9kN/vvSQNzYqFuvB+/Tnlq0u57jJrs5rjNu4H9X0RV/aiEYCn30G/tTPwDteCX/7o3ByBS5swj/4dfjxX4R3vlL4Rw/Bdz8IH30zHFoUnr6m/K1fgR//uPC3vsdyMBGwrpc9+lGlXW/kjHcQzyxQOwhCg2Q8OKYKl3+6hsfO7fKD//g8T5zZ4c9++DD/yx88Vi7sumsl1b8y/l8EhDpCbF1lenHWN2u5/NTxVtPB6+qr+1A16tUOWMdDjP6cPJdNA+c2lIfPKp99BpYX4eoW/Jfn4cYWDKzy3DVBC/idF2Ahg/tOgA4EuwVvOAWdFJ68CNJRbu3Ai9fhjacoY4Jt4cQSvPnu0tO7sFGmb20J//4xeM998MG3KFoIOhDPGosrNJ/+fODqL6TDkP5c2Tf0zyl91YWaIR5DfNUlR/S9qdCuZR8V2BzAz30OXncn/I2PwuvvhMMH4XWnlB/7TnjlSfjp34S/9C3wQx+CV51QDh9UHnwF/Mh3wAs34De+LEhnRN+VS0juPk8yFGa2WqBuWkegXCM7s8v3/9Q5nj/f589+22H+xDcfQgbqGLIACe+s2ALaLEvMhKi+ThdL3++aT3A4cotqWqynOi+Pk3rSVT79hPBPflswBpYW4e98oixXCPzkZ0oj9AMfhIu3YGkJVrpDFIWwvKQspMKlTVADvV2hZ+HospRraIAxcPwg7A7g5i5IqnztgnDpBvzRb4AXLwi/dhFOH4FX3wZpgUdH1Wa7OmrytnQ6uVY2U4Rm86KiAZ+3FErz8ePmNY+/vYOf3rWe8txl4Y++W1hdtuh2adg1h7UUvvcb4b33wbvuU0whqJVyLu4JrzqqnD4K/+lJ+ANvqTgNWqHhlWfAK5amMDM4eEPprgcAdIWvXu7zl3/mAo89u8sPf9cx/sJHjsBuhCFrA3UN10oZCJSLAcdTk6oC6sqr8xyYiWt3rsd0VF845GMwTn/aEz78WnjwLvi/H4IbO/A3vx1+7gvwm8/CT/w30EnKdbJeDolhaufE6DkvBIxi89K5SsxEJ4KSJYIqDArAwJkbpa379Jfhr/883NiFlUX4/m8RvucdSjazLBGIBoJQDa2rIbcL8+rPoTHzOzT5+HTcVM/BETLKjetrNf1ramxNyhRavug5mFZxDx8KOLUq3HHIoj0ZOrDDqEKUVKCbQd/7MmeEymfQHDlV9FdzAsBVYhVcdzCAoyM8cXHAD/30BZ6/2ON//e7j/MVvOwI9O6chq+lMMd7klFvthmHVf7VIpvHV0RX3IVR2SFfctBlEDb99g6dJf6N8j0wLOLwKt59Q8hzefBccvwMw5baLu+9VTh5WCgT1hYDj/lY+FCpYBUUqVk/GIhxtm7q6KewM4PnL8MPfAR//fnjPa+AfP6Q8cRbIqm32hW0h8JT16a+Kekp+e9FfyAiO8mMnIh/tCo6QUZ5Kd+k1TJSB/ZarHeHYKvyHr0Bume3vBWi/spKlEzm9uAXPXoHXnxiR1kpzQvrxyKSS7zmbOS4VeK4ireY5ZVLhsRd6/MBPneepC33+0keO8n3ferhc7A8u4tbBPC60p7w7gzTSFOe3mx/Ko6KYOo8rhjfXKNV7VLNpMZ6MB4cBSeDajnDhFrzplLCdKxduwKuOghageZ1ePKHDKKHaVqc7bQ+UjsDH3gn/7deVr/H/2DeWnfVTX6ayxtLUTl9bq+lOnutpz+gjVn/RGZX8GJ22xVEFYdqINcnNV7/yrMpaB97+SvjVR+Hhp2U4yVTx+Z2HPIVffQy2+vBN94/6UEwbXMM2rT8zlRfVkArSmn4iifAf/ssGn//KJq+/a4Fve/caidXhfrIGIzCDzx0wsYoOeJx1O/CnbhRwlDFVJTa0qdKKKVP3ex5vdlS/Cg36A0jg+g785K/CP3moDPV+/UnlZz4tPHEBHjsHf+vfC+c2IElBRj7+FIvlDx3qz5jJ4YBqW6Ym7mHWQgr3HoXUgvbgxKpy6hA8e5XyZYDv9MGocuiyyqauVnviY5rn2TJNE91e9FdDNhpiIw8P4sD4MwIfeQPceQz+5i/Bi7dwFq4qoeNwMpYFePYS/LPfhm96Ddx+RGHgkq8bt2GY3GfmvenRHYROmXGyOMUFCuV737fO215zgN/88hY/88tX6XVluFPYFUzd7ElNJ3MbGGlgxuGmpxOqj95Qmb6L8UJ8TSNsWSb0u1JnanEK/DKcU38Ikig3duDnH4FPPVauCvzmU/AL/6U0ck9chJ/7LFzdhjQtF/57A+hXxGqtYIHljiIFZB0lEdjNRzQFVWGrX663LXRKI3WgW3p91k747CTCchf6BRXPPmBE9l1/dbIdlQl5VlVaAf3N4AulObyNxuyM/tqAr5LTX0LjrxCOHFB+8g/BpW34vz4JN4uqpz1s88gz71gu3RT+zM/CvYfgD78L0oFnVppTf5VJsikU8ZWpEheqb5I0V9ZXU/7hn7qdb3ztMj/1qWv8nz93mZsKpLFSd91K91nxLw7WVAnO3O7vwOweLDP67Qo5wLf3fF6j6zApV233WH8+Yx7hWXjuXte+cOca/NL3wZ94J7ziGPzyX4C/8RE4tQZ/57vgV/8CvPYIYMs1tJ1tuLw5JJnBlVuwMyh3fGsOi4uw2oFnrjI8a6n0CnjmMqwfgKNLCla453A5WZ+5Otx+JLA1UK5twLFlkK4GJt9QG6v6EsL68+Fwy48MR6yX5YsofAY3xHfExDilv5CR9OWF6DbkVc6Eal+44wj8xH8HXzwLf/c/ChswOd408s5T5asXhT/7T5XVBP7yt8OxBZeEhz+BWP0FnfWZEKsRZgWtfcttawk/+t8f512vXebv/8pV/o+fv8zVXQtJjPvu4h/xUucuu4Pc96yexBivbp4wJMCEl/0mI1hTOXhDQsAD9cJ0/USgu1h6aKfWwCwrN3dgMYMjh2C5O3mD+fWnwRr4ja/C9nB2/uTj0AHuOQ7kwqEF4bW3w+efg2fOgywqXzoPX3wW3nIPHDqgaB/eeKdy51H49Jfg8hbIIjz6jPDiTXjbPZQvG8be9d76aLNsAx5zY5et48envzp+6gxRnUdfpVU3Ztq4dLOGWHfhrXfB//xB+LUn4K/+W7iyyyTk7MJXL8Ff/8Vy+eBv/GG47wiQV/lznz1J3m8dTHhPfvA77vkrXoa9z3XlAmUtrK8kPHjfMo88vcMnHr7J9gDedv8yXSnz9+Yet6w81WliB7kPj+ulBQl56IRohkKNtp0w4A021p/Ft63w858XTh+Gr7sPfvkRYXsXPnC/sjDyjhSOHy49qV/4PDx1RfjEl+DjD8MH3wDf8oDSsUInLb2zX3oYPvkEPHlJ+KcPladZfuwjcPQgMBAWFmGlK/zLz8EXzsDvvgA//VC5IfePv09Z1qruXg79ub9jnqOYqKHl5gX0J87veSH6uieXloAIRuHu46UH/xO/Ak9dhK9/tbK8ApeuCX/un5dLEX/tDyl3rQgM2o5fJ5T26M9vzGbWoWJd6gBvBawcSPiWNx/kkWd7fOKRDdTCWx84QFq+q5+tLCFkdYRCaU2Ca6FI30aqKFRSaVOkPEflvThr8AQ/shFLcwJ94MmLwlvuhDsOw+NnhHuOwBtuk0kkQeniv/MVwgD4nefhygZ89EH4k++GlZEXrnBqvdwZ/sTFcsPtqcPwY98G99+paG8YKOTCXSeVk6vC774IXz1XHpf5Sx8Ubj+Ac9DcF17XtW9e/bEH/fl0GINnDv3FMRWZ16KsgCngrhPKN79O+OefgydeEFYSw//ws6Vn/2MfhVPLUq4hTMmyzqg3waSM+L9o7hNiS6PmI9sxPHdlwF/5lxd56Ikt/sj7D/F933qIQx2zDxto5+XPbasPjyv0/aATKhMKNX3pbfiYX386Gota2hHjQ6VAWq7N39wuy68vD9PdrTgZ9PqwsVsu9i90KG9PqCIVICnL7A5gfQnShGFoUgcNnqzgWa9qqjfKJ6KMMtNfZmi+vPp7eWDCnywoj70g/MQn4Lmr5fG1H/gwnDzI7JvLtiQ8Ye44e9aYVQU9ZLD2mIZvAIbLagrPXsv5q//iIp969CZ/90/dwXc+uIL2nHi48WjIS6hcL+qQkaOSLoHnEM5WDLSoW+UJpg8UN9Hy0B4nCeOFb3UyqzRGlzhOed0uWSkvZ7Q+tio8jC5l9JZrAyGZhnS2F/3tBXx9ikraXoxuzUQtMHVMbE/3GwrWKOc2lMsbcO9xWE0lsL801n40pwc8s1GhEczriQSYzIQLGwW/+Fs3+chbVzmxlpRnI2b4relcPnreWTfWnfd0FC9519hDszLa8OCmVaGNp7xX/c0BtfprLBwYQG2sSKT+xv3kZdCfKLPnRavlqwakWiTk1cXAnJY3Sn+BsQKz+vNORPvA25jOtFwDnlmDZZzpdO07gKQCmUH7dnzo+L8OeImm6EbvF/yd3le2wYDsg/5+72Fe/l6ienX6q/WM25CKiZQakfwewx75qmm75wqgEKFKevQemTBoruiOa8hcXn4/wn50EGGmrXVfK0Kn6c7Mnm7ZEIxCxL3rzw8+/YV06qa31f08/abtQKrDW6c/PHlNE1W1fIjmkEaUp7bXftok03n1F3KUYquH22WmwyUPgbavbKeOCjV1bnddwNdB29DfizF8uejA2DjNoAmtiYhfD1KtE4C59DdFwEfUk+ZbVggSYbaNde1oakPswK1EFjP4fTTqljjq9OeB4Be+YjwsH0+h4q7+2hj6WNiL/urkHMlXQJY1B81dOpGNbfz4RygthL/lDBOtE1fA1bWWWCPspEd9dr7yO3opqBJeVkFnHmbpuPNFE9Rdk94qrZq3H8bfhaYBUlM+9GYxaMgD+vY2uy4UjSgr7oNP9zXtndHffkUSewGfTYgdK57yM/ory5nphBADvt+eKnVlveB2GN/vupnOw3Mjad9AdQTWtpN6i+hs4swep8hZSmHqzq2ZDu8+e/C08u73W3+hvtTS6xjXcXH61vtcqFs+UU8RX3+P0V+ITKT+ZiaoIR0fb/umv7ae1l7056Pntqc6Rusm1lF6mWcmiOsKt82KdgM8v90BESDSeMNBKDlGSTG464yir45Mr50E11EiZDdVLaTspk5Ql/Uy6G/uyT5mwITk2jbcccpE6a8te6EQPcK7atRfk8Gt6+9t8l26TdA0pkNjql5/DZcz+n7GMDyytB4DEHVbQCz4Bo8H54zsfB2nTWjpRRrgL0TTxV9XromnNjLco/4aB0gMnZGnEZJhE37Ha4niwTUK8xrFKt4mPmPa4aOxH6HhiHxsX/dWbs4LXbcUTUOGRVv0y5nnEkyc1XXd3CozdbQ9BsC7JSAgkKjFa9+AbtMZmmYfF0I8hTp4XfnYwVznVUTqL2bCmkHh01V1ANYZY6VxDWrPYdKIlxivqy6vWn8/Jts6Wft0EWPQAji9Y6TqPVbrR+hvnDTSn08uFbzeCCnWax2Wm/mmw3z6q4SZvjLDilJtfNvZrQ7qDIm2RB8rDBfqjEqbWTPUllDHqWtcFZcbLrodpcq/6027ocpe9Fcni4C8p9j01N8XB6Q6SF3Esfqrk0ndZBnoc1WDMDY4dfoLyG/G63GNi+sc1EGk/mZEMZp49slb9EJk1COhvl6mea4AqjZsZOHdAVVTZ88glT+RApwhv5dBul8zcQyd2PBWI11xDfx8OfXnZWDfIqcJhNo0b1uaGAyFax4+3Df6qjVs+Yybi9KdlGL4bQt1XvZLQK4xwvFA7U4Jre4zqxtYvpZITb7rIYz+F7PGMDKgLo0aaC1oDy8zXmioHswYltazVlOnDBm+UFkJyFiJk3n1r/vs8uADDdB/qSYGX3gUo79R3Zi+WAdN+vOFqnV9Wab71IxnV8dLbHvqyqkTfeF5joV55do04VbL+dthppHUhTBVRFWiEbP92F3VmaxpcAffPLNQyGV36XhIe7M8+CK94tn6bUJNp1zTUSdXxuO8prDGp3ffIKrqzzNYp0KSah2HTw/r7cGnPw1k+eQ/rzcXqz9PB/G+qavgrOpvbFdGeW31F+J15OW7upWAqhr0t2fwjfW6Mq7+pnmqeQHgA5/Q6so2MeX7PY8AI4Qyk+wKJKZddW5ujFfra1vI+Ma2vW0oHqPDId8h7zgoy+Gz+trmkddMGOVFHgB/h26u4zMqIQ+2zni9DPoLThBt+6qbpU52Xb8OpVcjk3n1FxM5uLyp57nkp37NLMRYo558Ha2CS6sKGg34kPsb4/bO07Fj67Yx9i6eOoPX4HXO/aFin/eMq/cGaNAfrv5C9ev05xtAMQYlRGu/9FdXdx79NRi9WjoB/c1AHe6avCiRRejPOylV02LavveQ1vM2s/Ls64jjGwAiCTW2w9cpql5AtbExrvQovY1wQmXbGBBPOxqPRTXlxbrhgdlrX/TnegYuSz5kPv35ysbor0344f6eR3/VZB9/bfXXYPS82x/UkxeiEcLt1A1Wa9NHm4xuSH8NfSTUxuhJt4R0UssXBtSluXUCRlFD+RC+zmOOtCn0PqHXjeA617qpbrW+U7b2doqYWb7OkDfxOJLtKG/4rOWdiXnl60aFtdjhjnYjsJAmiKu/mdlah398tNuEGjHpTTTmkE0wzKzTXzW/jf58NKs0AoZ75iaOJkNaI5Og/ny4YmRbl7dP+guS9jOexjPU9veI6CjPMzCj9sjEGJOmIiHemvBWZ8xYw9IG9jro6/J9A0zBwO5mwgvPL6MKWbbAuXOPsLF5CWuFlZUub3/nq8k6aeWu/cCgrPXMYuQVC/PK1ae/EL55eGxTp8kohOS0F8PSENZ7J6KXAvZCw2fo/XJKPan7CE0zW10jHY8iiK8OQoMq1pC5niSRBjgGXd3MuC8EgsWsFXZ3DaqCLTI2NvrcvLWFtSBSDD/HIFSs2TTfY3rV306ZqQsJJV52M83Yi5B0GsVeUO2b/pxKXhw1iFvRbBpfDdnzXKM90y3mEVJVWQE5e9ICxiww8Kca5Aszwc+4D1+st1EzEBrlFDur+RB6OlwtioYRE7TrdY1oCuVDBBx5q0JaGhgxBUiCHSioYsVS9C15r/yCuM3BdBKkk6FqIS+gsB7cDXypq7+m5g1/BGUcMxnVyN6o/yuxSvmlYd1P/Tm4pq55duXkIxAyZHUGxRl/wa4Sq78qLnkJ9Rd6riBqcliHddt5ZrXWNtYFjjCxbt0Q3Vo32RVSlXaMQWhO9heKnYViLGSsIasHNbB5PWPQN4gohck48uoOIKSJQQ/fxs7uIoghBc4+dR4RoSgsR46tsrZ+sLR0Mzz5+PTkzaW/Ku6YMDGcboGtGxmDgZnxR1Rh+WBOt1vXPh+00N+UIduDe1hry0NGsqFcfeFhdptxEdJVSH9tHY4QvWCYWWdw2iijybNocHVn6u2XAX0poG0nbWuo2pSfbrsFLl1cYHMjg8Jy8PaMe967iBhQC8fl1YCQdTOun7vGp//hrzDYHdDrKw9+/WnWD6+UXxFv9MZDAzZGf7HtaQ9W4fKlBTZupRjHO7NWuOPuLboL/RpPq4mnJmMb8DiC9UP5Q9k2vuGvelQx42+ese1C28l8v2BCz/MNACjTRv9GFQT/59Grdeog5M2FlBtr6OaBOtwV2lEX8EngOTYfZmTgLVbVSdOEUOV7Nn92opUJGzL65XbOGP3NM1HFFm0z8VX0J0J9fxo12ifbGtwzOOqgKsPY+h59i4vLLe/gmvmuRKz+XD4bZD+3/kIVqzz7nv1Q8czc2cPxxkRrdOYRlDARpmjYVfXiavodM5PUzVoxddxZLYS6zYwUmiXd8KuJZ0/HdehYoBjuk7ICgkyNCVVlvFN/eBBaR3QkBXRIxQyLtfXGQ4Motl81eTv1dSwy/kxjMazva4YgWJQB6kxeZRsMkEx2U+kAACAASURBVHiPIs0TrbiGqI0RxOmPsVGKz1OuA1d/Lm633S5fvnIh/kK8Vek34ZjUT+sRjspXO1y1sTWzd3WwB9dGmhiuGwhuWQ/ql+LV8xRKnyzcNtV1shmEHkI+/bjP0/maGC6cvcJXn3ihTFXDa973Vk6cWMcOcpKuIMNF3XQBXny4z8a5nCQz5APh9pNvRq3SH8DKQQPW+/VWT1ub2u1pR616GgxhiIbAxfPXeeKxs4goYlJe9e43c+LEGmqdN7Qm4ZnPPc0XHzmLJNMTZzFQTr/qBPecPsHwFW8Amtra0M+9C/ttDblLM4Qrlq95DVRdeZ/+Qg6HC03jaOyZNTAVJcs6F9BtgNuQOs8OT3mXpkdgc31MNmIW8M6O83S8avmGyaTWoHtoirC70+PSxVulj2a7vO6A5eDJlGJQFtfhmDaJsHuzYPNCTpKVhmBx4QgIdAaGNN0E3WHWzffpo659Hj6D7WnboZ18EXZ2+1y8eAtjCsQs8Jply4ETKbaYNmaSGnb6u1y8cBPjrCD3+8KJ21YD/LTRSUPZ2jeUdbLxeVFN0Uq1TJu+2jTpNvFIHL1xcbdddWXLhzSQ6yRXB3GIsZChcfMdGlXc1Wd168ZY9RnGJ2Vmwpl5vLYmrwBHwG69Bh69eU79ajsSU/5zaElikMRg7bCoBWsVLUCLUsxJZ4guE9IsJc0g6QhqlUFeemJ5rsOXmNOh16z+hnmjy/NmmlM3CdX1mzrZ1MtUFYocNAGjgiQJSZZhpDztUBRlG0VNWdYClskyG6WoJTFIJ0GtKftmbplZVI8OlZv59hvBkEFoMhKeKKHpq/FBkYfqzNu3A+kzp1Zq8I6zywfHmIW8kRCTdW5/aGZ1OutUlVjjVFfO5wn4FOjirP7Gk9bQthm9xc5iNXxNeafTxVWEzRtbbG5sT0bfEIwI/d0+t59aA1VUYaHTKdfJBPKesnWuAIXOUsqNK1e4tbGJJJBlKUeOriDGUOTQXShqxF0xZHh4nWn7qGxb/dWBP5Q5sNzhrrtXynBaYPP8Nc7sDlBVOt2MtbWDJZXEsLbc5Y471jDGDDcUJ6gKeW7p7wrnn7uEqiIIh4+ukGXp9OTunSQlMJZdb6ppzIyqhMaabyzW4Jvh1Ums0/VUgSYd1uFpyG/0M/zjr2GfmetducbEVURLL6PW03EU5hvYwfIxBiOyA8TufPaSDoXVLjR4YD5yIpx5/hKPP3Z2ZrtBkSv3nD7Bg++4v8RhlWxlCWstJoGtGwVnHtoGC1lniRfOfI1bN1/EWmVtdZkH3vJGOp0UtdVF8xaDb6rtU1xHlo8xYjU0FI4dW+PIsTUAclU+++uPc+nCDRA4emyNt739NaRJQq7K3ccPcffxQ4hAr2c4+/xB8oEhTTMuXnqcp558DFUhTRPe+81vYH09g6LJUwnpr00bxVM0NLHuZfyFyof0F7s0EBp3dXWIG28etH5jNhW3jhKqrmhogDcxMQeTMy5ljCDrQjzfoKmZ6aK9RTetij/U0dwBUAlZIsiqKraYLWwtoIoRA6ITWzT+J+MXzAJgtcRlQbHDYoLMGNS6gRKr+1DZJv35PJqA/lQREUbr+blV1EIxXC/TQqcvAxl6tiKlVysYRMp/aBmig2Jtwrig70aUplMEraHaPjetrvwIYqKlUNk6XmLGfsgBCXnoMVFXPfiNmasPUajcstBu4owJ42IV5OlA3vpN+BqMjffY1h6U2Gj8HQXHnMswFouSF+VJnSoUOeS5LY8jUfIiqZB0IEmETgcOLmSohW63g6jQ64FaGAxKIxnuvPPMwDHpTZ5Z3QTk0cH4AkIBC0WhDPIy16ogWUaWJaCKtTmqtrRRpsSrWspPKcN01eHyZGaQTjpcZKv2GYP2Rhtv23owDflt13vHXdatV0cudgzFTmgh2iHZ1PWxuMlBrv70e+cwhQHkU4eLQ/Xq8p1yY2W4M1NEWBotjBpj621PCFdsesgLBETZ3km4dH5h1uY6dlwQkOsoN2YyVWF5ucvq6oFhWeXK1jq9vMNCR/jKCzf5qU89RaFKr6/88fcs8JZ7UvoDJUsNx4+tY4zxtKeN/kby8xlsX5W6cL6NpzOrv0ItV6/eorc7ABF2tntcvnALq6UXurZ+DweWjqFqsSrsbKel1ypCr3eLXn8DEYNqAZwH+rgy7/UK3vy206yuLTtnWUP8UdOmur7MdL+cKrpf46+Kr43+Qvkt6Ta1PwBxZzPH+KquoOuxuI2J9cB8ylWneIxAXTptQ01P3VbbO2LTffKYpOW54eb1TgBXpaaFE7etcPRE12sDyhDUjtneupCzuSEsdw0vvrDDQ09fJFelv9vjYx96PSdPH0V7w8X+vMA/abTVX51OZhiOwBsDQzoV7zgR4djxdRADBi6cu8bvfuEMed4HTbHFALvWHRorMENXV1XpdldZWFhHxGCLnCefepqd3Ru4tn57C+5/w51gTIMxC03Gbpmatld39o+zYybelkZuX/Q3shdtoCqj+LpplOWbMipuGFVnFGIhpqxU/saU36PDOXXTwQjfHDhHSN1YcIaogFHEaNw7BynXcoq88F8oIpNBKSjdboLmKUvdhG4nLXfIK4ChyC0Mchi4gzC2vXuQy37irIZM1UEOk70XRma2VxhjSFOD6iiknGwSHoWbIgarOcZAkjCzZJYkIGmCpMkwTHegsE5/2gvUhfpN4XpT/b3wUE2PwBfb0SEK3+RyRm/kJpW0ioDm6bvBtafASKw9ILtXsgFcU2zNSc+HVoXBbjLeqBoCMWD7hm43b8aJkKRhhEUh5Hm5YG0MnL2+w7Vbuyymhuu7u9x/xzJWlUu3OhxaTiOaG/KU2kxEe5xgmvpBZGSSZgnrh7oURQfFYpI+u7vXx0YrTZfKLR0eXjrdDrCESOJkDuht7rJ59RZFPn1iQlVZXl4gndrSEQHe8ec+uxDjfbUdWy301+bYY+1xwVg5TXCWa2ZTG1fxMOPryCHjVK22X0bJWVuKctUj+AvyNG+IU0Ux7IiiDHLh2ScPsruTjL0lH6jC0nLO7XdsRtENfQDIGOX6tQUuXVgqN8ga4X/5D1/g0fPXKQr4htes8A/+xGmyRCis0k0mb/5m27Cf+qvD4aa30R+ROIclFYrRpJwIj37+SZ59+iJioNM5yJ13vJ00XZy8QJmq6/c60nSJ5577DNs714brjRMYDAre/Z7XcdudR9FB1dBFtjFo1BogqL+2a1LzlInVXx3+dv2tXDOrNjhoyEJIa5iIOoBaBz6XtcmFnqdciCcdZtXxHFCi04msrVwJFuJEy53rdQZvunxDvhVUwFBuAO0NijKaLCydrqGbSDk4C3c2ddcM3bVSiPfIqvoLWN/as4mxenbpDvM8uMVAKuXJidwIilJYiwHUaq1cjXE9shKSJKUoylMTxkx7ZpM3xOKfgaKa6JtwG7ywWv3FEo8osyf9hcp42tcQlgZuzWgiVAc+JggopKm+a2jaKtQdRG0M8jAtAcROfqtU+oNvcA/pWjO8rqJMt1YoCuNfTxmCtVDkEu1hG6NewycGFjvC+lKGEcEYQdTS28lRhN5OgRbD/WczB6ib1lN8AyJUv6q/kAccmvTcci4fTVDjUSpDmsro+tmp24LqsAbXCmypP8+ZfFuUt/ey2EX6zhKCgPbz8qXLiPbMoG3j2QT64xSuNut2rv48Xl2j9z6kF7NVxMUhw/9pM52KMWtrtFoYhpFn07jgJ5W/IYMWiv1DfMzjwg5pGuXqhS7bW/Xh4UxtFQ4cHLCy2sdaQa3l2LFt8kLqvw2rkGYN7lul8K2bHbY2sxmcWSo8/MwtfuVLzwNgjPCBB9f4gx9YZ5Arp9Y6pMHm17RzrL8Gj8DFF3zF3zQI3PJuekQfbDKUbcZ1DeR5n6PH7mE9P4l7P7eqcOap65x7/jKji5VGXawolNP3HufwibXyxUQtz6GJvc7wVX5H68/BNyNqX8TkS3NwenH4oDLmg07QyNhN+lbqJoTB19DYkHHk1TQZmBDuNrNUHU5fek0bRLl5o8O1qx2SJNbIlF6YquXgiiXPDSKwut6L+si1alm/CUTK/VBXryyWO/UrsJAmPH72Mh9/7HkKCwc6ynf+gQd4/+vX0L6FwqK7dg5Rzqm/Vl6Gi38P+pvCF8DVVgYBKIoBqyt3lacGHEiSjCef/AzXr19kKkpVyHM4fPgAR24/hObxfWwub3Vu/bXRh4s/Jj0GX6BOpW+lYxfOde1m6o1mWJdgixg8+gO0PjztFgNn6dYoIal+C7niTidlyGaMkviXSmaxKYgoxkyHgTNe8pi1YRhYsXQhWuWRo/LokTFgEiVJrGebgNJJDVknI9WSuOlbdKtA+9U4qKq/CNk2bsqsrdxQL2TwJJBel+ajuz8umEj1lhIdh50igrWDQC2LSZSsM61b1bJ/Jelwv0cy9GxsdaJxx6XrAbVYTplbf459iCo/Rbier1qI11/lu5lV1zxQOvY8prfdsd5fXajRJNBROAtT5+TqXkQI5L0cnfqsWknPGEWwpKm29syQcgNsUfg+CVQFpZcXFLWX/zHkR1hIE6C8qkcjPLhpUpETRFv9zUwEOAjE+evm+wj71noaqtTC/rhgRdFn1K9ExLNFww/GpCSJIam4ZqoKiaXIFbvTJx8MEMo9bzN8CxH6axgbIUMWcl6mClT/VvNjl3Fi5V8Zt1NrbM22I7Bpdg9eULDTV9KCn96KCSmahOeuC4TaVnqakqX81q99gfPnb9DJpg1PXlgefPtruf+B4wwGzXu/xhREuXZlgce/eJi0Zi+YMUJeKD/+mS/y6PlrZO71FxWwqty9tsyPfOAB1he747djMaFrO2g76VTLxxiihkXDmbUXd1Z2cDfeJrw/RkzEYG3BmbO/RW93A6sFh9bv5MSJNw2bH6ZTFIPy9t6Ts2WMSXn26S/w6CO/gSocXFnkmz74dZgsqZwkiNHJmNMaXgLeXCsjGRuJ7YPcW90UraFrsyO8n+DvUN1qDO6r1wZ8dUPGy60zm5/nymCgQOGkl/gkUUztEZVpMMNIxFrB2rCBkmFEsdUr2NzJSWqNGWwvWopCUCvYoaLbGzPXe9rrDBrprUdDCF+IXt1AjOhjreRX3ixS2AK1YIPXiXvImHSGVLnEkFAU0O+Xb5fzvEmeTetOdcbFJ5t59NdWv9UJKRZ3wyTmgbjjTF5i7GENbM7O7j14PvodKSRVSBMkS0vPrJuiudDbArrTePMBFD0Lg6JcODcyvDqhhMQos+u9ioiy3DEcWe56d+mrzdFBj8QYBtbS1R6m2CX1fqW2BGshkwUOLWUcXuqgwNYgZ3cQP6DGchAgGe2V1plsCs8IVwUjSCcrX9a1VqETPqSTgaQ7tjxKVWtY2kywoTI+PMqgr+zulJNQeaQpjKs8Jga5QscI62l5nMxg2dQlcpKZFzIgFEVvZlvH6DC7COMXA6a6JOcF3/iL915mcETDKOzzTYAxhipWf3W6rF8WSdsh8/HXVjC+hkeEjiizi59TjMRBmnLr+gZnnr+EMSAqnLj/JMffdKrcTlYBay3rd5+Ag8skqmg/x17dAAQxcPNWh52tDGOmK6aJ4eFnNvnkY2dZ7jprKqqkBw6RHT2N2AJVZePoGzm0uIOpc7MUemnBz/zOGRbEYhUeuG2dB06sY1sdkYFBz3D9Wme4AD2pqwppCocO92cHpBFsYXnyi8+QD3L/cZ8ISI1ycSvhs5cyMlNuVPiOtxzirhOLk60JI0aDfQInL+bZ9xuMhbvuPsLBlS7l7T9d1Ka1Bg1g0QhP7WQ8dPEwoPTo8Fb9AuvcopjZmmFZXbmLbvdgzT61OSBa7Y4so28o2cv4CxkenwHeo6Mz5KsSZsYy1uTmBqo1ubW1i5B1oUQT3VFaqUBJDbdubvM7j5xBBAa78G1/+Vu5/XX3YHd6M4jyQY61ljQx2M1d7JWN8kC4wMatDlcuLU69HBARuonhP3/1PD/7+S+TdRemm2NzDp58Nbe98R0Ug10AOseOc+xEg3EQYXfjCj/3+X/HoLeFscrHHnwVbzx5KN6YCWDK21TPvbiIOmsS1gqLiwWr633S0Q7EUXZiKAY5j33xBba2+tFvd11YSoXPXxL+3y8tYMQiIrzu1BJ337GETi1LhnQ+p1cRqGdUuf3uY5y69ySIZXcn4dkvJ/T79SH8goGzvQ6fvnoYQRE5yNrgV3iFnmPXoWUtLCwcYmFhbR+MmW/81XssM3m1IvQZlnlkHtBfqzPPPqMaLpfGLRrUWc4aQ6jBHzUkYhYwm3B5cIyEqOXCe6c7DBkUbC+n2NplsNOfQVVuzSjrG7R802TK9IWOYakjJOlQBsPbFropLHUUMYal1JmlC6GbQmYKTDL8oqMt6m+NKTlBiwELnZSMjNxCJ4mL92T0P6EMFYxixFLeaj/tISfGIokptwlUdWIMYgxpIqRmKtqeQNOLW8odCN1UEJOQJKMQayjkpOywIsPJze3A6vTVmq4yPYZdD4Pps2WDApXy2iMdKIjBGDOc/6zXS1MgkVKPIoolZzFRFsb0JmAL6BjoDC/UtEDuvIkebd1RZXo5w8L0DQWh8Vf1WCvtDEunAULr0l5PIRLnvBCHO233ZZn5Cc0KO1S/KdyMoRvHk8Bk9vVuAgM7/EKRJELRU7Z28nL5wMCtnQEbvYQkHw4+kyAi9DH0yZBsAdPpTrGlJsGkWTSPXr6F1gv/agVbCOQCakg6ZijSCSKxIJlQDAbDq7Qn9U2SkA9ysm5C1yYzh6mB5sOnQCeFhYWEA8spC0lRrhlh0f6AvF9gFQZtt5y4bWVkaEa/oNr/RGT2ZctIFqoUxYA8l6GcxbsR1kdzl4RtDD3HqhfkbNkEkxsKazBAZxhil+tmhiQRUMEYQ94vSK2W32wwpWGt3SdZmxYKG+vq16W7OJvKtikzQj8Kg13e6yHdm/VuA7OdauIuNNHyudVN4MzGc8weJoHnP7vLzbM5B5ZSnrx8kx/6pcdJjJCIUFhTHm0sCpLFFY488K1I0gEt6C0c4dXvepPX6EiSUhRuSPvSgFB+2fzqc0s8l6+wvZOzfDzjVR9amhFJ0knZuHyDX/1Xv8Ngt48xE+aLwtJZyHjHx97H4oGl8afaSiIChZI/fQHt5aVnEeJH4K2F8D3fLsM1S3j6y0/y8X/1GAudhOc2DP/oiaWSn5mF9DgoVHjg8IDvPN0f3t8/kgRYtRw9usabHryPbmqccW/oD7Y5c+YRdrb7qBYcOfIqDh9+VSNNo1t8IvkWDAXq9s9ESS5nmKsJfSuc7Pb5gdsuYkQpbMGxo6/l6JH7EEkYDLb41Cc+j9qcPFfuf/1dvOr195Ry3VO4FzJAkeNi5ijUPN5Y09r4iLVQBFZPO93LYC/x+qxoHVRnhkr5VuTb0NlD3C9Q7FgGGwW5GnY2LS9e75eHt0XGHpIWBVnRpTtISUixVjAmo7PkPzSuqjRebravoAwGhn4vod9TFqwhO2AmqhtC1k3Y3oCtrQH9ncHU0ZtiAN1CWDy4zPLaAeyUMQMtlMHyEiT9QAw6DetGx4vBTxeWWxsFxULBzQ3D+aspOVpnExtaC7clOdubfXJHAdbCgYOjxbnZTqeq5IOcQd4rvVkbt79QpGDAMqGJVq1FrVJYw0ZqK6WUJOkAZrhNo2Bzs4+1ljyHfn/4odM9OxchT6oJb2CtK/rQeIiHmPQK/Qie5zhoHmtF/cWDZVsLpknBNYuitWil9CyGi+VLCxl2GQ4sZRxYSEh1QCJCOnK5FBRLSkFiFCM6fBOotNiG1AzDmESLATooO3smyoFuRm7L9a9eXn6sIzEJVhIGuVAgLKJIkpJlGVkumCRFh6HQdBcxKAYRHRtqmw9v/BiAHSh2kGPzYvoCQikP00OOkg/DpYTyE+Ge9RW1FEWODMOnwlqK4RVJeUF53beCDtesgno2MvwAyTSUa08atAHGCNJJy7VBKM9EjkLkod5l/DfWogpCWOFjNKJkopgkI4HhtU85qqMbgy1pMtkdM9M+35vIqLPVs/yGw9EqBPBOJbc0ttHFfW0P89TwqTkfhNzEQN7U57fqcAQYCHqmnplBqvS8mQ32T9BBgb25WW5o7Aj/+WtXeOIr2xxcMlzuwfpdb4SxKRi2Ri1Jd6msv4831E6Bgsm6LN92H3YwQBGe3FH+9e8+h9Vyfei1hwcspcqGMazqDd51W38oDsX0znDpylV6/Ry7sERx6STiLMVImsDNHmtrd5Av5uXtH8dSFtYNNrekWUbSyWbeyI3Wfm5c71JsG0ya0Ottsrn5wsz9X6oFnc4yBw+cHOM5euwoS0sdstRwYEf42OpC+cZYQZa7mKXO9FVFw660c92ydTmf2etngbsPWFbXBzM3HJX3xQnPf/UFzFBfx46vsbKyPL9u2oAIed7n2rUnMVgKhKXFo3S7K3H1fVFQY2TkGmR3fOwlZIytW7ERsYZwaoxXI0A/VM5mVpiba0A2uZA+4xKqp97HqbpTFrpqqCJi8gBIItjNAfmzV5BEkG7Cv3n4KT716FVMYllcP8GrvuFj5SCc2QCp2KL/EoaPSrqwzJFXfMPQazI8+rXf5pOPfg4k4XBH+dMP9Llt2ZIrHDbwsftG0ztsbz3J8xvlfVt5sUr+fIYx08ZXRZF+xsljb8RaQ75bcOc7ljj2wAI63Jme7/SH3+qsCq78ffH8Iv1bXbKFLlevXeHMmWcmWzyGYAtYWTnBvfe+lsGgByj3nL6blUMDdLjo/s2VvW/pHYdJTq4NP7JSgUS4/sUe5z+3Q5LNdvBchb5nH66I4dat8zzyuYex2sMWCW//htOsrB3YeyQXAcYk9PMtzp37IkaFgSqnTj3A4uIhqt8eaAe+/h2zxFI3ButouI6Juw5ex4uH/lR25cdUlWbj69k0u1d39eWCNnF/Q75QelWUBi3tJsPd7gmLmSExwmJm6Bgo8nIA7uvmx1hQKIrybaqRBCOwkGaoMZhUEQagpW0pCthyjI4McYgIJktmjJkxihTlJ9Ws1XLLSJ5T9PqMlo4muyOGC/hCKSuUbiaQCVkKWVK+UUwda1JIuaSWpjK+6qiwBUU/rxz9mkxMdqcg3c7H1+OMwjVJlJ3dnK1+QRKcrWV2WA2XAJKU8u0t1G9W3m9QKLd+CAlldOuGsuNdRCPbkAjjz9ZbX9jdIjwcQxtDFlOuzn6EjFuT0WI6hB6bmjZhZqv1qDauZhXqXcY4mtCOboDe6AiLWmyh7PQskhoWxJZrSEkHk1hMMlwDCt3n85KDxVCUHxkyBZmxdFIFgU4CWWZIs7Gj5AdRTCoUhR3euzZtzIqiwNrSsFhrUVsMF6+dkFTK86x5UYZtRaHs5ra8AcQUFGpIFxKMme5iai0mSyiKHB3vki0R+45WqS11oqONeKN+Pfyw7+gjvbPgP5ZUbrOwQ2OaYId7Bl9WaJpbjUFsec0TFjS35EWBaPk9h/YhXoiJeY24G83NM/Zji1b4bLhYMh0jn5FLnbvouJtzyVScv229K1cZMUy4Vh9IoHjhKgNrEGP5ynNb/Ol/8DUWOwbRgq2jb+P0u26Hoo+YZLjQ/XthyIRVvcG7i8+wpDuoCHpkB13dRVVZPLDEN33XO1k/sjL5XqYHTJZy48Ur/Manv4B6vAKAfr8c3b3egINP38vh7HbyopgYEiDrGv7Nb17m7336Ioudsnx/06IFbG1v8f73v5c//6P/Ozdv3pzCnXSXufm13+Zr//pvYha6iDEcPnova2vr09s9AESwl25hr28iwKBvOPfiMsXwxt6ix2TDsiOrza2LXL702MweMVVl/dAy733f/ZjhNxCWlrrldxDmfX26T2CtJU0XuOvOdwGKSMrVK8/xiX/7G0BKt5vx7ve+niTLhmuIvkm97WAcjWFnfaoOR/RxqBjaNUbZ54lNvQSYdnDSaavXZGkD7q1rBEcrwo3QttF19dvgcn7u5uh2H1Jl62aPr5zdKjeVFgPuPLbM2toxin4ZXsa+qt9/EDJyTrLNAblZtrYLsgCqwsLBlEMn1lg7cWjixXgg6ab0tna5fr2H2sLrlYwimt1dGOzsoNt9dPxh4BJUUy5d2OLLT14jTRMQSJIyrBv0driuCxw5/XVw5coU7nRpld2rZ9naLEjZAmEoU78h0X4O/XKyLXqG3WsL5IPhtphEkIQZ1YsIthiwvdPDmGl9WQur2mHx0DLdNEUYen12L57KfoEikrC4uI5IeUPtjZtnuXxlgDEDFhdy1A6Nrp3UcXFEGRT3zWBdqDfDpi+krNqOGkfI+5IuQM875MO8pfMZBB9UF+7205A1lY2cCUZfbs0MYoSiGG4FyEFFyxFsLEkqJFnCUqf8MrVQUOQD/y2iDTcshFkWr0fkAyWhfHdqKDRlZyAYdbSmYFMl7+fl2lPd2SiBYlCGLOXljloeQ6qIcbRLwdoyXVLBDAe6SFoakk5KJxMSsSwOF+xNWp4Rs33BaEFv+xb9nY0p8hYh7+04ZmNahlPfWzAl0yKQWEPaScujVVJuqk0qUdfAgjLasZ+Ucpm5PIAybM0tULx0b58DUPKndKQ8vWUoN2CLSTBaLmNMJkxBxJJlZddNU2nwiiZUxhD0A/ZprHsdoJDj4RjQPcM0HufrTHXMBGDKFRRabaZrdYWJRysxVxBJ6SlePF9uS0hSw85mjzvvPAJAkVs63Q6qtvW8nC52MVnWrmOIYAc5+c7uZDW7Bg7Z8xxgA6vC4e4ud95zmKXkoDORKp3FhWE76nnRQukeWOCO+0+Ve7GMwW7vgOcmjHxQkKYHuHk9RTVB1bK1dRlrC5YyZae7yqmvfw8do9gi59pXv0SxOzw83+mwurrKYDA9CaSLB+mtHmJlZZnkwAEQIUkWgPL676IQNjczz1tIodez3No4V37OTeDyjnBuK0VESQXuXc0ZXVJiki3uunsd13tQq6yuLfsX/V8Gx0woGNDlMe5FRMmNeTw4IAAAIABJREFUcP9OTnbzWfrWYkzK0uJR/3GxSApTba71AwLjr9E/qPP+YtLbrMm76UP6niKp37K2IOzG2bVCcAU9r3dWDY0b6AlghEc+/wyXL29iC7j39CG+8f1vGofWg35OPsjpZIH3IT5urGVxfZXlo2v1npDLkRF2rm9w4/nzGO+Xd6vcC2/VR/k6fZLcKitrR3nwu9/P8srSjJxVYdDrl2FIDRSDgrUT67znj32gpJGlDL52juLqxngT6Rgy5cVnFnj26S5pasjzXZ566ikG+S6LA8PNt/5B3vfdPwR5j3x3h//4g/8jg40zACwvL7OyssLy8vT+LWMMi7e/go073k52cA1FWFi8jrU7Q4OVcObZgyVvFfGIGPr9W5w58yWKfIfMwC+fTfj3T3YoEuVQpvxPDww4uVxuwL3nFbfxtve8kXTKNRsitBYd5LP952Vw0oQBu6zxifQ7AUFJ2bz+C2RXH2bTKt3uEq84/b6o86Au5vololEZJmXKg6HB1aN4mjGVm7xF9wWfr+DIiPq909RPPNaCVssErPWUWxwymMS/B4gvNCxnQIUsE7rdcmnEGCHvl1f7jN/6Dj24stqoPfWxvLUFtrDTR3saQFRavUToY9hWJUfJCkve69PfHd63VdePpLK4r6CjTCkNcW943ZEUOYPdPrY3mDmGlBYW1Ywk0fFHXbKsxJEB2Jz+5iZa9Cj6u1hb3rOmTPa4znzbQCh3/Be7SN6D4dvFkfCF8oMswPgUggzDzPKYWPlJUmOgmxpMJ6Vjyk/0JUleXrAIiLVobzCUNfg7WNvF8v2AMnRM2AHA0qEjtrw0REYfPJnHRazzlqpl3KSIkHQG9ii3MU2fAZsq6KEZ1l9ln5kPYQzDVSE2CCvARFmurYBego44sg9GxiOp/G+WtIxmiDnBg7WOrYl0bRkqTuQerjQayFoSxL3wB5i8FatlZ3K3lwzX+yZXIxUIBaIFiRHSRBjY0YtBZeZMlxHGxkuYvQTSw56iGFUKW/JhjIApz8d2EiExkCXlV66MMVh17yILLhzV0v6vD2Idjzmrj3FU/gotI6zWBJnw7fPUJuC5NruVi+SUHeKaOnzuwzVvx2qy5DXVAoPVGOXi+WV2d1IOdCxXby5z2xvvppMAaumuHKEoBqgqSSfjwMmjY+WlnazVPfAAqkq2tMDqXSdLz0mVrcvXGez26l8KCPS3LGd/a4esq2ihrJ/usH5PNnPoIEkTXvzKGb7220+Mab7ugVewvn4Q666Ii2C3e971u6IwrK73WFoejHV65Pgry+NbVnnFwZts3/on5RtBW/DR7zpC0TtIoZZTp17kxid+mDyffpsoxsCtG9x1nyLpJggsLJTfNqgu/JcL/MLHv/wC/+mZ83SSlBOrhh/80GlWF8sD/K/uGT66U76ayAycWi7IhvewLSx2SGauJPq98MRebqiOOXGMjccjCr1Q8Kb7nJA2fDXh25t+PMeZIM5ldZka1SMQVtbVbRM2tq1f78GIwPZWysZGBlnObm+JleN3k4hFEIqij9oCVDHGsLCyPG6ftdbfERqakGQpabcz/K1sX7/VWE2kPOi9cS4nTXJsoSwdCRytNbB5fZsXH7+MUoCkvOLkEawxWPdYEAy/GzorI1XodgsWFyd11tYPjxk6nvdg8BjjEPG+JTDlor7u3mT7a58qjZeD1CQZq4eXgPLlQLl512kDpaf1zLVbPPzMRZIs5bW3L7Fw4g6OrpbrBceM5TVVtu1k/UetVo5AhfpjaMb//Q6urmo8l5lmRa5be9ND4y+UNyois+x5jWVIP3F2yXNrRoQ1noFQ/kvZSRrWQEah4nCg2gKKvAxbqt6JAt3UYjPLcqZ0BwXFoIcM7/UfrU3p8OO74/WxPbzaVlW0GF7tYrUWV2qgK0KO0knAZFLurzIMj7l4DLURTCqYjk76TppA2v6ua9VyG8sIiqLqaQnI4uRnzzLZAJVgFlb9SIWp42CTWzqmPxBT6ibBdDMWk5TUJEheoP0BMyfIW0O1rwCSlH3FlANvtK3j5d66MQvl5aCjj62QmMlHq61levNszNj1lfGlu8ViPLXAeK/c8jyTNkuoUrDOoM7yHXGcqY135RLYxw5Xy5djwUXY3u6xsbEzvCYGVlYWMcagVllZPTDupAnKc70OF7e6HMwKnul1plaW0oUuJjGotSSdbI/taQ8Xtg1f7UFBwsoynFooWMhyrFVS7WE3dOYNZpGmLIjh6LEVQFE1ZFm6JwO8n5DnQr+XzjiDYpTdHWcZNxpiJs5q/9Thk7Bxa5udnQFiYGdnMLzBYhlVS5YttWVkX6BUldLJllleXseYhE5muHz5JmlqKHLL0lKXldXl4fc19zL+IgxLrafmelDzhI816+5TZQiWC6yZtWXEcW2n/UlPmVDdujxxWAkbXOmmnP3KWR7+3PPjJYNv/gNv4tDRdbQokMJSFEV595hR/tnlIzx5YQ2T5SiQjLwya1k+fojFtYOlR6ZU3o699KDAZ852+XcvLgGGN57KeN+3bHDPwd3yavhCGTzBzMDPVTmWJhx//5uGeATNGzbTvkyQJMrWZsYzT616P5BcLvC3NbqhPlpdG8IZkGVeYeCJL73AU0+WX+vqLqxw+t530OksYVXLu8asnWOrxN7B2pz19Xs4dOiViBgGgx1+4zOfpMhzBgN4zf0nefD9r0E3624tjl2GqXEOxsmR62itvcGImWtMxmdXyszA1ow5YYag+xzrCnvyZjpjvQU3RsiyYix/KQoYDDxrRkoilsIUGDO9cVYBbBla1h0ReikhMUonUwpVCqMYKxTDNSZBkICzqIC6i++BPvPyO2xKkuh4C0Z9ydHfquc9/Id4+puvdk0RBJNCmhXl9oikPGhfvvSZfYEg46f9Ban8q0K5JNKn/KL6gCwtECn7cJooaGWSnxkj0G68NYB3SwXhlwheaOPoVGm75WafA1cAtQ0zR0XbeHB1aZ68WtztFTTeasBsB9KpGP/3R2jmg/JS3L0Pq0J1X1oZy0obllUpN7kaU/IoQwTeibOWKk2DIVRPZPJXKL/oVT7vT98YN0krzzLpmY3rduOhOo/XFFMmRHD4PFZMTEQ3hyGLLJ/OFhDnWVtY3hDBqakjAk8TjYaQogaMUXa2U65dXcAILKUF/X5S7q21StrNWDq6Pu5AabfbuKv+9wSM8B+/eJ1PP35zeC3MfHBjK+d733+CN997gGIwv/epCpcuLlHkUmusRGAwMM1emSrWKu89fYJ7Di3TMQm55vydX7yA1QJr4QOvW+WDb1kvv471EoAxCbduvcjGxjmMCAWGz9g3cDPt0sFyjdXx/Whz0yDnCXM/F7mdgUk4YHt86Pzv0hFlYC0rK7ezsnJH+OLGKdJNa2Y1hit6aAYKCkzvFZ3HsYkJicPlPS8APBWCFr9utqNiBJsM2UxwVwM+wxs/s5T3cBmuX1vAiNJP7PAWhvLCRUkTlg6vjdfG5tp+8TKACjz6/Db/8qFLFLTZguuA7fNNb1jnLa88SOE5Sx8DpewMt2506PWSxjWvmHUxpXxR94aT67ztzsOkxvDs1U2+9/97hgsbu2BhfTHhm95+qGLMPH1sZpARLjvDp2Fn9ybXrr9AKjBgmSez93PLnAAKhAGGOYU2BsslczcXSYCMrl7m7Tf+M10svULpdJdYM3fPXo/khdE4Gzcgru+OZVTFEZJpwPGZO8yMdZJ8+puGhsOITWsRDcbJXeMKCndeY+HUGx3HSRJAxjcmTJ/8EYwoC2lR3tSaFBgYe19qLVoUs5tLf69A7XCfW3lVtyQGk5ZbCLoZZJ3y69pA+W28hi/xlt3Cjnfmb28bUsmhGCC23C4iozNL04wAgs2rWyrK9JFxSlMZbn5tMq1xt40IsJsX7OYFWWLYGuSk3YRFm2ELJcuqn4oLDIzgyZI4j0QQkmT4XV6UVPoYdhD27yooQ3/IUU6mu+XuC8p/Im2301SMUaz9rg3X5/CUai+QqLMZbXiYTfOsmcXGvj5m6ojXeXjzwDTPqsqtW9sUhcV0UopCWV05UHKjkCRlxxeUnSLhTL9DIrBoCvK0Q7bYQawpP9jx+2idLO0eIFteL++YzTKevtTj1laOFbCdFV7z6uXSWNuCnasvYvM+tcvTw4+vLBy+DUHYHViWD99GsbiCzWC33+fMxYulMa/Ei6pKaoTT613SpJRpngtFMfxknYXd3v/P3rsHe5Jcd52fk1lVv8d99H32e6bnrZnRWJJljfUaS7Jsyxgbeb0QOJbFNiwOiDCGgGB57AJh2IDA4Ih14N1YRwAGwsZgr2FtY2PADmMj5JEsW8+RZjSa0bx6pt/d9/l7VVXm2T+y6ve69fvd36/7dqsHOB237/39KiszKyvz5Dknz/mefdLeAA9tEhkTEceNuXy4VINb3cmmoy4O75TlWAtU3XkXwhjdSdjs20qTpKvy61nH+2bm/1B7FafGd4IqbGbDO9bNiIFC9QNM4K6HaZ+Vk3XssxHSXsYn/vPztPa75Lnw0CObfPAj7wgIoiiRNTjniGPPlzt1fuL8meCkqY743Gk2ms0AVijcNTYyRTl27zs4ds/bQAzt9hZ/7V/8Jr7bIYo93/O9f4J//Jd/gNzlZPs3+PJP/RU6l58LW/qkOlM49sjjvOVP/kPERqjz1CLhihEajQYvvPgif+nv/lla+3vIkOCu6mnWI/7fv/AoJ1ZCouOtGzWuXG4GUEaf89qrT9NLu1MlM+eUpaVNzt377hBdMeMCcworNc//8nhGnnXxCk+cyjBqgMl5MKfSXBBUdzGNmHNKmvBME4eoQqC5VTvaSD8mmKZG+Myc/GZM06tQM4dF1HkYWfl7TG8/jKYNrE4qVGEXAZxLyfIewSPBU7MRaoJKUy4aQfACuz7EAqqHNYTIDFV0J2masRwKlblQm8Wy3fG41JO1cryJaDTq5M4TZW1qkeCtZ5pm4gv1tNFoIDYKJ4Ua/PY1qqO2xlZX2W37ET+wbuZZEx2bcoJ6CRDeKnjfw/vO1McNJsgeYOY2RQpQsx6rHu+Da8JowP+UXVG0enM+7JXLeLG7h/GFfX4eu1j/JqauqZGyk8pX3XsYU6uwv83Uxvj7q5YAD4kAkOLPWR6kLK+D8nOdgo7vKjOJbEO3DDKMy4jEGxhZH51BFEFHlsDXgkrIIT2sF2N2x9B3j1GP+uD8G5KTuJmeS4r36ZxH1IF3mCjGGIOxFjGm38pI3woDsbVSYOcLkQk/1gjem5B1qRz/MfLD85aAvBGyQ5VJVQ6fJ0pwdi8TBnsASxFoL8hoI6N3Dm/OUg6E9MPBVAc/w5UYFKtS2My+9uqoEnwMy0cVI2g/c9PYOA6vPx2tZXoj4+vvZtZwde8nfz9tbKcJVwMGF1VfGK5nnp1obDLNde80u11FOzN9V9QmsH2jTpYbFiLH7m7C9BRGt5FEcL2U7s5+kdEbfAXK60FSbFxn6ewTqMvJXc7a6Qc5vrlJ7jy71vPJKwkXX4snJPkI1OukPH68yfs3NzE2IoojXvitn+fGS5+j1myyfX2Lbz65R281xcjAyO1ViaKcf/Gxy8RxhOBptSJa+3HRd8/WluBcMsLMyinw/lMZS7GiBrJ0nytXvtiHIl9aOku9vnwIAolibcz62v14n2OA5y/Bb/7b8xiFRiJ895PrnFg6BPlXhNZ+h/OvXQnp9IyQpwscP/4WBMXaGsYEvLgIx2uc5jNmOYRsSkSXBkMA/HeQFCOW9bUHCdnPLXmW88Xfew7yAIt0/4OnqDWGEibPvf5COzfbv5trp+rzLELMwTk+xsyqJKKqyic0OBFOZFL/DsizQ/2YlyYt4CCV3bhRp9O2LMeO3b3kJuo/GhKBvJvSunyjjygxAgw5hWzSYOXedyAi5HnO2pmHWF1fx4jQ7rT5zHbCZ1+NMXayntlr53QeWmR1bY1akmCM8Olnn+bVX/83RA2DMcq3n8qL/gyYS2JhN835W791gZ2ugSLWmSEXC2MsaG2kvRJ28R0bGWs1IVclTVtcuvxsKKBQq63QaKyMtDdOqoo1Cevrb0EEYmv4T59+iX/2iWdxYjmzGvPko8ucWKpSNoYmoMDuXpdnvnCBPM9AI+655+s4efKBkFZPKXy6lEhzXjf38hm7gZGQ1k7UIV8DZqaqGGPZ3HwMAGtrXL36PJ/+5OewEcRRxKkzG9SaNQ7XbIZp1jU4jz1yFhtaWW7su0rY/Sob3kGmNnjzB4yI05jahI5OUi8njsFY/eWDTDT8j1HJBEqVrVQVfHnXoLLIKLENv23p6Fg1rreb+sMryE04u4ZdGdTlwS+OoKaVI2XMMGBsxQNKSAQStE1FMNjIENUcUS1IYvnQraVbiwKZD8lerDfFGI63oQfGseR1JcBHAKUISmx/HOYxsRbP71FEPK5QdVECDHnx96g/jg50XwkJbQK/L22pAS144Jha9ElM0c+MvkHgDswTM/QjZZ+L/pfSq0gO4rCREkUQRcPrdh7GM00iullVs4KZHgr5U5SfZCaAIfW3/G74ZYweV1V0aLyTU/o/XGakrvFOTyKlb+DTGe4ToZflpLlDrCHrZcRJQr2u5FaJo6iIXwwPvecM+7nFAW0sNg4WEPWzSUV3HYmw3+7x2qVrgHD5+i4LNmclUcQqRgzWJJRj6HyGV0/TKXXtsHfpJZIkJopi9lr77GYQGTMyFqpC3XqSEsYaCncIj4hiJQrS2DQq5lw777Ld83SdkFjLYq2G729+9qagdpqR5dRCDTWWtUXL9ZbjlZ0MVViMhfW6DT6EQLeX4XyAwE0zRxQ1EIlBTZGoeLBonUtRlNz46qxct40UFcO+HCPFkwose0Oetcldj+DzVuUDOFrHbAzqMOY1SZiZVeoaKzNzOOK8JqbBe5sxg8eUyg+IfUWHCkPzfJxieBc45L445pVnz/PVr17FGIhjy1ufuJd6vYZ3nlo9DqqJBDXzZ6+sc367SWQy8oVFVu872RflTBLfUTSMoyAbWf7Df/40v/uZLwOQ5Ps82bzMh57o4RCWl0+xufFoMZTChYufpdPZAlUW5PP89t//U4gIK/WEf/Xxl/nc+QbRWIKVLBe+9VyX957IyTzERvm+R7o4Be+V1dV72Fh/dGouUVOcxvxf/+WzXNttocA7zqzzV7/569jpBqYRRc3J4ToTKFfPUw+c4PGTK0TG0MlzfvpXv8ql/W5ASXnbMX7oo2doeCVT5Uufe5Vr13aDihovc+b0O6BgdVHUKA6JDGna4uKlZ8jzLk2BHf8EIseZXdK5eRIcPWnyq/Y7EBRnY962+0U+sP9f2FclshH3nP1GjJ3FTDKJKUyStKrWXJVkdivMbhJVMcF5DhQK7WtigZG6ZrGjVdUzr8gzXP4QTm6ETidle3sPEajXYxYXGywuNfHOF3yqkCgELruYN9IEEUOjmbBSC1KLHlBJ3jx0bWuXq9d3AGGRNl8fZZxY9OQqrC5ZTq0tooXKJHuGlrgC5G+HrZc/DYAmhkvXE95oJwFyeojaqaGVl1kQgqf/iWZgOs7B5nLEybWlqdJLGQi/lca8um8wwLksodlYoUvaP22eVzJThWP1hNVGgjXCdifjpaspL9/o4FV57EwDX+iFqp79/U5/riwuNNhcP4aYMoNw2b4AjjTdI8taWDHk0g1HtDe1SOclRbFcZwMQvCTs5M+S6Q499TibMJCRK0iG/xhXyWZrv9Jn7QAvmFDnzBBBVTRebp6xDmWj2TpQofse5nahVR2aIk4OS3IHjIDjAxjsHGVSjRBOE5iX+hCgPE6GgF1WOh7o4Bz+TUvGRAWahCDk5JmQKeQKuQen5SIUMiek+ZB3fjGkagKSqcsPxqBqDqJKbAs/NCALCOI4B5lTcu8rx7vfx6IdX7zbclqo+uJn9N4yYUrZQT8lk5VX7bso5OoxFuJYyB2INYi1YS65oY4AiKK4vllDxGCMQST8xMUAxQhTDoZvG4mEYxMhqPP9t3iYcfGAllS1/qq+H65DJyz/IfNT39mYUebXNw+NS3RzCj8jPmWzq6DRxFjJSZx4Jt33MJ26olPDL2KWXeC/eRLW9DKbehWPoSE5m0vLHDMxXgVrE7a3XwXC6B0/UefkqRMHXt9CAt9mYx7ai4aM+oGMsZjWDT72xj5OlSSyvOfeDWqRJXdKo7F6qERVMq+3b+QcjzIEeHglJ63Q6sMpbY/9/cv97xqNVWq1ZQ5ii00ZGRFa+20ufvUCkQ9glZFZZnW1iQC12hLD0ku7fY003ccYw37ueYb76BlPInBJNpk+p+82OsyeNgMdECTG16pW/z2RiY7TNBVYBpNmTmltQmzmpI5VGfmHvx9XLacxtVkY1aSd5b8TGO73L/GUfh6HYm2Deza+oYB8Nmxvv8zFi19E8aCW933rY5w8tYqOwPyE8X3g68H1N5HBGMfLMT/6M/BTv54iFhYbCR/5+rdzfKFOWkA1H2rrKqr9rntTuidyUFhazunkFUlMxJBmLS5e+hKlL9eJ44/TbK6R5+nMIyMC16/v84VPbpF7xUjM2bPv5MzpzQMOuiLCzs7rbO+8ToRwVVb5HfuHaEdLiHpUgpPym4MmreEqGiszUeipkrCq+MVwXeVB3ngdVf0cr+/mN43JsZkjjQ1fm/TUh0ll4zStjiqaNID/DZMo6jNUPMoAcjZEO3iQnDIPnUUZNYkNPkSlIjMmmQnB+z1HhrA4lHnec1mqzH8Z7pz2jiHohW7wjDr7+x7U7BHyMBZimbxYynmVFx4+HpXS9ePNIo2VNAMTq4zjnGYyGre/jdevB4se3KUq6p/GwKp4yWG8oWRmBxqbxpjGy1V1ZtbrVXUfIoLOWl+xMfjhRxl/J7dIImNYo28KG9wc70+Dz1qjsEtG4xsu1W/rTpjKx0mABWOoFfFstfF3M0bDEpojItcmIuCoTbnrzUCHvN+5IbiqJLEJgsiIvW0WLW4GqmS+w3UN+h8dbGxw8WDHJ+mw0xjQeOOHib7zqJ3VZIyyu5OwdaNGbDQA62UmpDE7olWmqjQ3V2msLqNecWnG7vlLeO9nCE26W+iQ9+cM7zqe0XusizVKLclpRBpcMxAWJWVR0oq3rLQ1Zlfrh6CrHQ15rzSiiD/x7kdoZwGTLcqu4LovgoyqwSKGTmeLa9dfRDXHEvF0di8vRV+HwZGR0KXGUUFi33maZua52W1mkuY2reicwsek9qbCCY3WG00sONVjd7ysztjfqvuH/haYDDs0PjCTl4kxSp4Z9vcSYuOJJCSanb2fM5AqUb1G/dgy3ntctzcYs7uemc34/lQ40fC8dS24dESRIxqaFhZPQ7IDFiUjSu5N4ZB8+5mCAtYIbz2xUgy9YWenzWsXpHKWeJ/Ral3D+x4RCZfsY7xuHwLNgdJG9mZlZtPokGc6VB0cX6vDZQ5rbxJjq7KbTaLp9UUTG5kHYG3u9z7OXUv9pWqgpjUyhWkEbWOAonFENEh2UvZXR68Nww0NN1z+beSOSW59P2BftG/MIL5o2J1iylxyPrh5GABXumjIkP3r4G2l256IKWIah77X6fzeCMRmoLHME/Hl+g0rHiUu370Ef7cyXZwIxAJqAhKGFQ8Msh4dFQ2f9N70O1cdGrfDmNFhFw+Tqg7TrrT66+ovptR1iMH/QFer+n6wropUc5NunNSBeUTXGdXRw7RXBO707qmKWEvSrBcfA9Pq7u6DV1zuSBaaIV5SDC5NyXtpfxJn7W7hZS7F97ezq8GrfWFho5igEXs7PYTraO6p1WJWVhaQ4Y2s8rV4ktoCCwubQTIzhrrxxJLhVIknLH4Rg8t7tNqXiIoHrdeXsVET1NOoH6v0HxOgmwvPbwuoBYFoRdiUaSHoFe0De5nwlW1BjEUQGsd2g41Tle1ul1c5TY4jwrLP4oG+3AqpKsZa4nrhqS9C3k3R3M1ls1WUJFlgMVrD+RDKJDJlvY1ISoet4Xmo4r6Rr8avTdPqhv+Wop6xLfGmGOXEVHNVNEnEO0wsHb53WqcqxNmJxcsXc+dIVYmSmLWH7u03v/v6Za6efwljDLaWsPHIueCoibB/+Ro7r10MMNy5Y//SNVwv6x8ayGHY0rfUV0+zuUmzuQGAYHjxuU/Rbl/HOzh5+hjv+8Dj2P5EGqbBe1CfsbpyjnvveQQkhIZtRi0i0pLXVDotiLG0W1d49fyLJDbEe9537v3UastF6JPg3EFXi9goVzqGf/5sjbyQ3n5wKebr7vWkc0DuG1G+uhPx088mOGOoGfjjvMjDK8Ex+BXO8uv228iIEZQcg8zFLqeTeiVaSFi+5ySgGGPYfu0S6V6L2ZMJK+pzjq3cw70bTbZdeVZnpvjcHSZsHLb+JpWpqE+H/j5gypqmRU3SAKuuz6d6DrlmlB0b46qV0MLTdFcdvVT1YLNy7n65KnuXcCcZWr8bxhBQH8J4qfPF8CgYE5iUDNSK/uvwITrhjljEKdsPuAvGCN578jzDOXAjyYGnbTjhOUVsiLbA9yMopraNoIQgbV8cugQwxmhIVaquQ4G2kz500M0gmJfTrl2seach0F41Bw9OHDkRGVHxLLdHwg+oKAEd5WbVTCEEwosvA/qn9HW8iZkFsQkFD12n07o0jS9U8ZThz2V/5mO+0YEb+3xtzI41iQv3mcw0vXa8j8OS1ZQOj9nQVARfSjSR4BG8s4iA92ZImBOMQk08sdEAOq0BIlsCfszMNIjd9AUzkpCstZic6hUV7auQmKG0b8MLdx71YsTWUg7AQTIqxMSIKhExRgwhm0/BaIsdXIfqMgW2jDchFkxVsd737fQK+AJDSKyiI2pNYOOzrBAjQmKFpGTeWj7XwXtLtNpabIiMEHtHOtguhtTh2UlVidXT88E+Zg0kJkCmRwywdI+MkQmD3BFawIuXYzezNAYBMTm8QyuC7+N+aGH/tWHfFAtq8c7gEIwYDh6ejX2utEVNeJiRtT+xs7M/14HbhgTcQU8DAAAgAElEQVSoSYcMlf0q7z1YvsJmpkONVXR8fDBGdtqxjvSZ3HC9Y/VVdn68niAxdtpdvvzsG+R5DmpYWEx49/seQr1ijSGpxUHEjzxf7DT4d5ePYyVIE+naJiu2Dt5hk7iizYOkXlk8sU680AhMyzm2vno+TFJVbL3G+sP3UTKOnfMXi2EQ8k4XE82ZJkwVW0torB+jlOu627tk7V7FvPN81TzAniyiGOrkPHX1PCvmBZwqC811VlbuOTAfjYH93Taf++SXASHted7y1tNsbB4DhF6rw7NfPE/uAgx3FJ8jMmfQOXaAyCgv7xh+5jlDUgsuuT98Rli0Sm+omnIc//Uzr/LStV0ia1iII/78N39deEJV3rJ5jHY2X1o3p8qjx4/xQx94ooDmVp59/SU+dXkfg9JbiMjOypFKyT73LJ5YI6rFqIJ3jt3Xr/Sl9LyXljvTRFIsCfu8x/0uEZ6eFx7WFbocR8Thfc6VK8/gnMN7w9qG5f3f+hY0dYgxNIZRZuGgIHKAkQ1fH+3JQZrX3jaNIY1La7PWOywEHWwnOryT8zxEVbmj2vmENHW8+soVer2UNBWe/Mb7eeCB07jco4QAc1UF8VxIYz65u4gxAalx/fgSzWbITt5XC2d4nmR5gebaMVSVdL/N9msXKXH0j507w+KJNbx35N2U3dcvo67IPSkyt11MARNZ6iuLfWkkbXfQdrdCOlFuyAmuy0lQYYEWj+59GcMlch9Kr6zce6ANY6DbTXn5pUsAtFvCmXNrbJxYBSDPHa++cplemqMeTp3eYHNDcPNE9BjlatfwyUsx9XoECD+Yh6Dt3lCxIHQKn71wg4+/dJnIGN52aoUffuqxfhC580o2V+Ph1Z5abnJ2ZQEAp57f+uplfv9yj0iU+mrEyTNHa6RQ70kWmyQLdRCht9di/+L1fiODAPppZIg05e3+WWri6Xllg7eQcRoIeR52ds7jfE6WwvGTZ3jg0YfRdrcQqSclrK4QNGZel9NUvikS1bCJaGK7VdrezUuDFZJZ1c1V4uBQxSO69Zj6WCnaThvUyYq/oH1VqZ/DwWsA3RvrcmlREyjCUm4OaqbvalEc+49CXAf1szw7L00Bt+x6odp/4unk+wzBqA9jQ6FOynBCkoP1lOMXxrKQA4tHK8e39OiYRsOX+2CuhAQgA6vdQeV02GXGFmgVRgLcUO48DqaicRxGXhXvQrt54edhRAPabb/nw72/9U1XCzcKoWquzE45YDX81rEX0B/jsuoyw8ugBLMJFXNKWsNr/IDNq2LNzsycJhWZojJPQOyZE5xxAneujJwvr41/dxiHH+/wGLe/naSAEWwSFXzKByNuOUmNYGvxSNeybgbq8VmOSWLEWsRIwFTL8pn6bCIb7CqqiDH4rIxLLNqM4hJHEJ9Xq1we2JdlapqTiRBrwnq2T/kOjKkRx8cwY06szbrhyr7SvtoFIN/P8DrEaFCiYJ3ElMyTsFCzPCdzaf+EdrtnQgxmnNPKlQfWmlCo2tZI37+sm3lutHsB7hpoxpYHjjVQETYXakceFSbAaqxs1BRrwEQZrrcLJgqqfVJH7ACV96baEEFzh88Ctpv3DhOXbpwS3tsdCXcbZwDj3x12z/DtQ2t7uO+HOtOPXZ/INysYrDC07sc+l/2ZMI6HpJqbhaaVu4U6ZjlFOWLy3pE0F9h45FzhBwXGGnyx89kkYePR+4GgMuxdvMLlZ76CWCFKEtYfvLfA0ILW5evsnr+ETaaomsX7Wjy5TtxsgEDe7rL1yoX+4y4cX2XhoTVQxfUydl6/ElTZsYra1PmP5psxKJ6IR1rP8q2tp1E8qpbTZ95Gs7F+IAPSerPG3/utZ/jEq88gErFez/mTjzjqUcAuWzI9Tpg9PA4l4MEpEBnLazsXeOHyqyRW6Hn4f56psdWxqGa89/5T/NQf+wA7neCC0YwtnSxnIYn47BtX+Lu//lmSOMaI8MNPPcZf+sBbaWU5VgSnemRvO0jK8N0PpHz4eAdr4Kt7b/Cvnvl3pC4sjrWH38viyYfRqdmhppOJLHsXr4W9w3nihQarD5wGQIxh5/xl0r32TeV9uHm6xbU5N/OdUH7manSs7NjnQ/ozgZmN67HTaF7D4KTys9Rz+xmaCJg4QgoGNqKWCtioGLKABonPMsRbvPWYyCJRgUFhzAy9DdxMjEGiIiujMWhhAyw7ZGyRks66yaMkQkqdoOTE9NTiXA/F4TXBSEQU1Q9AXNeSOntd5fJOhhgQ5/re9wCiGjzkZexkFMH5nF4BzZM5uN61XOt4nMvoeWW9kfRPSZ33fUNF7j3X2imNmmJEqEWGtWZC3Aus0h11RnmFugUfK5GBunH4rItzEmB+boGJjTRTbDLehZNviYLkZ2yZkKQcgaMkGfv7dq+RKerftD5MtKFVlZehS5PMUPOomRNjJMc7MIExDfuFjei4kx7kZnXrWyefO5SgwvncDexkVV0oQ5VUUe/7uQPU+5BEt0yNZKr1+lB2yA5XhNlYY9DCSOyHDLkiEqQ9BRGD9z70UQLDHLbPDXC3DAnKUnGM70Uw5PgC3TUgq4bEGFHUwGUZedYFunTN0BtRsDYiiWrkbpQJxnGEySHdiZAIUg+9zJD7CM09aW7opdArELVLRODQz+B7ZYxgRPAajPz5bcrDIBKYbS8TvA25DbTwnZNZDIMzNQLeBXVInQ+nimVS3tuqXg4ziHF17zAq1qkr3ToKshXRNf0qD9OYJklnw2pjVfmSZwypltMeoeIRJ0AATenUodeK6zOJh/MMvhzNpBvvgVcWT24Q1RN8Htw2dAbJQNVTX13BJkmRzFfZeeNy0VMhbbUrXTNUlahZo35ssT8u6X6b3l6reNfC0sl1iopwvZT9C1f7c6G5sdI3+qf7HdJW+8CBg+C4ICf49/LO/vz5DlY4i8OJIU332d4+DyjXzivf+dGP8IGVBxFjsK0rJJ/+SZzrEFm4vHOVbpYOMimVlHlqDz/BU3/w+zBAnud8zz/5R1y/tk2O8o3n2qyebBN3w/nl1vU6eX4nVaxRWl87w/LSKtYYrpoOhmtHujl652luHAvzx/ng/nOUwAZTaVzimcO8o4Jb3MPXW6CCOIvdW0HUHCg6P41LUdPGo7x22JjpxP5MgACapZPzqpZjnRmhKlHy9s8CLaSrxtox6seW8C4kf52FmaFQW16gfmwRMYa82+PKF1/A5y7YRSa5ZihESczC8bUg1Xll+5WLpPttAOLFBqv3ny4KC7tvXKFzfRcxENVrrNx3KqizIqj3ZK12Rec8W3KcG/ZkqFOF9/E65+jgJSbL2ly7/iLgaF21fNef+es88uH/GRFh6/Wv8Etf/Gf09jrYCK7tb3F1f+tAC+me8M4P/xGe/GN/EwXytMdrv/2z7Nau461y/5mUxc0O9W5QQ3e3a2TpHQp/OEDC8vK9hQQsHOtdR8yNkMjgiEidp76yRLLQGJLW7wgnK3twyPVJa1BxjX3yY1dBDSatYVrHxpGTGF2TN3OwMM+aHm9rkllqtI1o5JpOurmCw87Vv2nMqqqScRF3tsGT8r8514yqH1EZ57hzKEJAQ9iKOdy/LGxApSqr9POOlL/6m1Opahb/jRzmHDYWvq92CkKEx6I4CveEApnCGvDqwwkm4Ap3hn7S3kl+v5biZLRA0PCeXq50i0O7zDGiYRkJXv7WFAl2XWjLi6A6SCYy7j5zVMJ4mUBFkCOzkYV6S0lB+yFrfSY27EfxNadpJiMBNQHJVGXCch1lgBUFJtStFfcfwjhGLo+roZNvGwSa9xfIJEY1LsqOXx+6NsEPZMKNY1TxoH2L9PRJ4Xx4DmskoEXPiqU1A3OovM0rqANvCqmO2SauarDT+UEYlLE29MCEusJoh7pMHDiKGIN6j3eFH9kcEnVXDS1vSLF0/QAKBwHNu2hvFxVwaYtODqmrxgIrKfXQ66V0966hquRpj8gakiRCLVhryXPBufAMrTSj3VMwSuY96wsWW4swIhjJyfIU54IrSxTZ/jtRPZgr4K4hEUy5cZV+JyWp9k/EA1O/Wx9ijIY21j5Vdn1YwKjgDf1r47xghgOLA18V5XTs8xhV5AAYq3CEq84iympF5+dhbPMzQRFwufDG+SXSzLCa5Fy/Xh84Zt6GeSRG2L9wjdbVG5gooozdPMxhVoyQtTpsvfR6f/4vbK4RndwAgbyb9l0zBGisH2NhcxVUcVnO3htX8C44yPrcz8Q8c5SfvbpBIooj4bjP+DYKZlX3dD/7M+zsfRxjlNff2OEnP+fZ7dQHC7WC0tzz4Z/9N2x9/rfpph5jlbc/vkr9648Djk6ryVe+1CS2DRT4W//hc7y+1UJEePfDi/zG33snaTecnL72hZd55rkvgIHV1UW+8b2PhU1YlWtXG2zdqGHt3cUMvPPUjy2yeGKdUkI3sS0Oggy9Voe9N64A4RAnmB9ut5o9q/o3TDczruWiuhmJs7xvkgaoFd/Ppt4e7jQ7UfWsLDhDx8bpKLhN4AppZkh7hp6zeHe7RXvBZTl5p4eJg1Q2q+e/OiV3WX83F2uwtTgY/LMc18sGQ2JMP5ZUVXFpPjjNLK37h3eV3bwwjxJTU1t+jVjwrau4LQGrpNtdrnZgp2OxU3yies5y48Z19l67QjtXIis03/Eki8tLqGbkaY1ux6AJoMrF3S7nd1qIh7e7GufONvF7QSe9ZFI63RbGQp5bksRT5jY1dxkTG5AO3ltpFBi2kXkf3mPxju4MIOesQkSV/WtamUntTFM9h7+Xsd+H1TutS1VSXviuAs9s/PMMYmHlda3++jaSEcWYkOx32iLXQs0DUBecQW/KrqEaHGrFBReKodPLvu1MSmVxUL+iaO77G5SYwNCCaUwK9VX7d4kNtgwpgqbVF/caw8GYzWoqPf89SqSwqIJBEC/UanWihUXEKrYmdNsp3XbAHZPhuKPhR/dCJ/Uh6bCnQLB1iGSIZtSihPXFhDgKqlaaelwvxK2mqS8yFQ+h8hauG6UkrRRq9G2YN04hTw2tXBH1rEhCFDfwPi/mRsqsDU9OJl0g2845rRRwuZITxtWP2XF7Kbgc0hSyjDH78IT1V9nKYZdnFUKkgslMaq+Kx8wqTY6pqxVtDtTMSoYz7wKf0KFK21oVlz5sN7l1Ug3Y/bXlhWBXU08UJ/Mb/9WTLC+yTGHLco7O9l7wLTIBWTZrd4sgRx98jyS0b2sxtfVmsJchoWynR/nCFjZWKJ1mXZrRvrrdP2horCxRwuJknR5Zpzvnru/YkwU+Lm/BoLQSQ/ONHmnnJVRhJxf+5B9+mK4DYwXd66Kd3oE2Ug+Pr+Y8uJ4TcogY9ncX6XVrxLbGs693+Y3PvUC9Flbbd797lUyWSFN42z1NtBfw9u84KazVPe872yNzDoPyRvdlrr/cBXJsVKe5cQ6x0SEL9DZ0TT3WxmxsnKMmIVFys7GKqit8/gxvefQkkJPncPLUUnHSMvRwE6lKYCnvmeU5J63NQzaciUt6XGKb1EcdZVz9kKbxZ5AhNXNig+VNRyVeDT/EpPam9eUWW3eeuFFj5dzpvloQTjLnq18VGqvLNNeO9SFeujv7eDxGDFmry+4bV4I9rVAzSqkrqtdYOr1ZHAB4tl+5SLbfASBZbLDSd82A3dev0rp8IxjG60nfNQMRWpe3yDvdufptcOzJKr8TfSQ8R7LM8qs/R/flF9jvKWunl/kbf+67SBoJWEP+ylXcpZ0gHVaMgVNBRPFeeOHLS6Sp5Vgj4pPPb/N/f/wZ4lqCAL/zd97O/fc00K4HT/j9NTjl8wjHG8offsDhNcSH/syXv8yLF14kIideXKO+corIxhxdUNVsFJhZjRMnvp6G9WQqqIaIClWIIstbv/5hTKTh5NF7tPRKPrz2Qz4PUeVrmeP+mYuNS2wT2piozY5eiAbAcVU2r0l/zyKCVtU5fH1cla0W1funmMaghUf78E+/nAZVygpEhgDCWAaoDqsrJWP3vtrFYR7oHi0BEE0h2Y2KwaWrRiiqg9/j72j8BEkrrslQ3/uC9Lgbw6zMQRGCR7/6nEhCmE9sBSs6GqFQqLyTkJoD8myg2ApqwvhbU6jGOnDFGM7tywT19U6QqpL5IuFLodJibZgz8wApQj/IfuzL0A6zAUtq4ZvTh4ws3Ei8l0EbKoiEjaDIqMxgfRzoQFnzpF7TFypGJJyyTmGQl3EONfC2Mf+iD8PSWUWb0eiFGSsdLqtMufWwOicwzOE6S7tTAUmtWsA2jUdcSPCN8gSsessQD5sIma5jHxUjAaZ4FvJ5Hk4wZzFSj20+Yuh7jkiFtj3C23wor36IB0j1fbPToEOGMF6WkOjXlEw4YAmBYWKAtBQPYBAiKzhriCNTuI4U6DRSMIxhrl08iMCc/b51KvvV/025EYzvKtMqgfIAZvwOkXk2FoCwUQe4cTdihwv+d1IsAzM6jocO3tC1YTgiVUbCl8brKOGI+2UPa2dCPUdNlWM6+C66ZbjN29H/ok5vDV/8zAtcunAdMdCo13jP+x8lsgbvlYVmHec8kSgtZ/jxN45ztV0j1pze8gobD69TGjNt7fAwpbjRZOvlF/jMT/3DQj2c8HCqqHc89Af+R+576lvJuq3JlWrI6rR8diMEsANZp8e1L7/Wx4hvrC2zcGIdBFwvY+ulC/3b68cWaTx8FjQwz93Xr/Qlp9pSk9WHzob+OM/epev4NJtL4jG0+B37Hj7N29EoQq+3+Ym/+DTiczCCdnO0SKx7GPV6QXJOM897H1viYz/2jXQ7QRQ7vVZD09Binw71Rzx6UvU0Gqvcd997QJXYGJYuv4JeujrXXBZrSPfbbH31jep2ZkoGLSiWt/mneUJfpO0tTVPHytvJsRhjuLH1Ijeuv4yIpVaPeOixJxAToW7GcSuEl/Ybjmw3DLltQvOsGeCtDYJm8anSetGjaZAAamtC7biZC2r+a0URt9335eZJjWVvJ+XK5T2MgZUVz8rqMrWCMan3AcBPFIdwIa1xpVsHzVlcrnOsWe+rkrPYxIy15N0uOy88F7CopvXNObrv3SqyMU0pR9ilo3qNqB6Cu/M0J211gh+XERbiNeKFOoKQeiXrdPuLvLG2TNysg0Le7ZF30yARKtSWmyTNenEC528SXianJeu0EIxN6Haucf5LW/i8C5ghiWUGKk6R027OOx5t8HWPreH3QjiTZto/HOnTXFrB0ZG1Mc0oxL/G1mDtxbkVpNJ3zE2C9J5ROlOENd3iAd1iHyXRBhByLxgRsrRNq72HEfAaF8wnAjNfFIPrOty+gtHilNWOCaLBR9Ir5G1Fu2FE4iUJZc2d3XRuhqJ5bQR3lMRgLcRRULOsJQDgFZLZOFlRjJRAggWybFGu9NAPnveDiaCqxPUmxkYkC4vYepOOVySfwswKyUxNRFSLcVlc2MwmTd7hMJdSTy68//3gAKK0gQ27QxgbY+NasO04wSY1xATwSBvXMVE9SH84bFRDo2K39f4A3M+EQe7bz0QFIymxdQP3jzEyUdJfqGnuSIdzQSrBuF+cvmEGgIciOSpjRv/SD2PKovcefD5QR80RLKoQMhWe2UuJ0HYTNLc6eaAngOAw9FBStBiKIUtbX8UMUR+BCZU2rTHyQxurKCVsExRmAuPDbba4v1/F8DshmBVsiL4ok1brHd5wboaiyQvwLqB5pIIppKrUlpcwkUWdI1lYCIutCCO68tzn6e3tYmtN/PbrfPTdp1EbTWlbEZfTtj2uPv8qLm2HEKTxkJbqWzFJRH1lqW+Xmpb4ZO/Ka7S2NCC15Dmty1vBzQMlT6/Q2V1AfPBIb13dwmfBETVqLJEsrMw3TjiMTWgevz/4Wg0tmHAS6+jtXALnyLxyZqXJfSuLB/DH2j3lTD1m74XX2C3yvW2eWCNKSqbfr3XqO1YVGg3H8mqKMYpXodu2hcH8v00apBAcNZaKKK6+C+IDio5LMGljyDB7oKbhSqe1WNHe3UlRSGt1l5Kxc9l/qqj0zzp2zwmSxWZwci0Dw0WIaw2e+8Wf5fozn6Gnhvc+vs4//T/eg/bc9PdnPT/6dItf/OWPU6vlRLWE1QfOYqJDgsxViZsNjp1rjHaykhEKV77wNK0Lzw9OWEfi//r/jVzTPGfxnrey/vBTwwUPJfUOmzTYfOzDB64ZY3FZlzc+9a9x+T693PPUueP88PsePZA9yZiEazde5Jd+6fewxSv8g9/zIZaaTWS4bNVJ4BitrPVYWeshoqSp5dWXl8nnMwv+10MigAWxo8+vgoqnt3Ie4j1UIOpskFx/C2J8cRItI+UpsPCmj39xEifmbhZ5+nTXq5lHKjmWrhoSEmeIGMRYlIAvoQiuhLA4bPfX4mRJBfUmSAulLlRoT/34+ENPtaX4Fdoug6uDDSPk2payPzoYkUKBG+pToWFqefI5YbJWuaQcLDD6Tf+ATYc/jDavEw63lbB47JjhulAzVQMwgB52HqCD5vu33zKV6j1UQBLefSQygDwZfFlIYKUUFUwefUHFFGVG6rH9qTr1ELBs701xAHDXM7NbrYOR9adesZHF1hoYEeJGg9QJ4dBN6WUKOj5ZxilMnK4LSVgzp+AMxpjgNV+Wch4VGUukW9hdq4z1hW0izQaG8W5XaffmdDB1jror7FslAx/uvSreTXG2rHp2UcDhXYZ3KT73xKI04ogyK1E7czgfwsl88V2f8cQJUksqbWaqkOfBxjwOMSZSJr8NffAevJfiOz2C86uA7JHmgjPg3V2M0gFhTQz79YQvGdlGFMCAxoFp+fEtRsK14rvp+CiFfe1NIJrd/czsiPWJuN7kynNf4Plf/XkwljSHv/BNNd72R55ir6usLsRoxuGMVOH73rrHB+/t0Iw9VzoxP/kFQ5oZjPFEjRrrj96LugLiJ4r6NrW01Q1oG2Mr0Xvh/uUuf+nbr2CLndZ94BS+uzzXONQi4be+3OZnnv63I+5FEFTJZGmT1fu+oWKHn/K46hATsfnWbwsHKBLxqc4Ffvj/e5pchcQafvj9j7G5UCPzOYsLx3nwgW/sj+NnP/4MSsqoFBDaPnlyhQcfPI5zniSJ+6YBkYBQu7tTQ0SxVjl1thXib4HdnYTtrToyK9RTBTmFD5/t8UDcIjbKXlTn92MlvVsZmtgCCmpcMhv6qBaf7NHbeAYtMMD8+VVE64Di4w69tdf7io/aNnhTKaAFXzrLzHBaX0O6qw8AZg2inodMFNHb3eLqZz6Jx9B1nrf/kW/mve86hbYzcIp2Q5D1VFJ4eD3j4c0UrPLadk7+dItuTzDGs9hIaKws94/utfDOFAMuy+jt7mPG3Dqcg2NLPd5+rs1q2bxdBLM830MmlovbX6Vz9SUg5LDsd9vlqJvh+Q48b0iDt7B+L4hgoxpXXrjGl168ACYiiSN+8N2PYI2QOkccN6nVBv1+7rkv0m7vM/zIWggM9993gjPnTuGyDPWKK0AABKXbjdjZSTBGqdUdJ8/sE8dB2uz1IryGw7mbJVW4dwlWPcRGuKLC50XpzT9Cd4ZKU8Ykh9iikJcert5CRFEveLsANMIpuslw9St95iVqgzYyVcm+K0djhO5qPzPEcsuDWEgeUa1O3GgSNxYwcZ2eBl8bBbIeaNujncIwMBFedaxqX9gSVPEuClEKNni/o4LPiwBzKBA0ioS7YsnyCDO2FXonZLkLrh7lpRzmNVioF7o9yJ0h19EtQZ1gnMVEcfA3QgMo4qR4pZGKwbu0/9HgadQinEQ0oojFJKKZREPuCoXjqEKSQO4K95pCrSzNPCHHaEaeHnQl0TLIpx/uMFCpVENMaNnazbptdDOllSqxCG0B6jHWJEiRRbzvyqNFMpQKw6AqJLHOqUgUBzbq8WUOlMLcUZJ3StoLQnRklSIcY9TvSwu1c4yhiQ95CEQN4gw+N8G8kVtE49mmlRhELPrm8DMrF26l6XaIDrt+G0hu/TSzn6D2tZewicXEDaR1lScf2cQhtDPHsWYSrM83e7IrOlUtVcB1ewVfFWrS45FTGTp2T+6F46uO6BbVa1HD8WMN3vZgcAw1Q3UJjjSps797uTi8cMQLy5ioNrPKOU5lhqXnr+6w283o5cOGr9B2mnuslIs+YmWl0Ye3iWJLNWiJkMSeRjPHWIisp9uxpKkJEocKC808QD6pkKZyU24bSVKn0VgkMkLNJ6R71+loG9QR1ZrYpAkoYuDejZzY6oGhigy8vh2Rzpb3eYiUJFmgaRqot8RxOOUu4cMXlpucoAlE1OpJQPMYt2H1/c6muBItZpj1Dohilku5c4b3LYTNva/Wjm4o057raPhFVT3j34XP0WAXPazhr4GYacbE6ZsgMSEs5DP/+P+kffk12il8zzed4xf+wbcETK0ymDqdJfxkUiMwiGUb7XKZ6Xrn/GVcNyV3hm9/pMtf+95tapMSfPhblJZz5SPfcJqPPHn6wCWpWT75+Sv8T3//l8mdh6zF8Xd8lKWTD08/FJhCRoRclR/59c8fuFa6Ev9v7+xwz6Kw21VOnjzGN334nWTdtL9o84pM7aqwvtllfbMbXDN6lldeXiYvDkjWN7s8+MhOiLHMhVdfWSLtzbchqXo2Nh5jc/MxImOItve58anf5Fqrh7iUlYfew+r978LljsUIfuTDOzy2kcF4pqkFx5/+uQ2+eCEhTmbdFBTvHZsnHufB1bPsO1P0KQAYuNzx0GOPcPKRJ9BeKF+msBudq3JgYxw0EcrFT1wYLT/zvhVOXwbN3Wl+UVXP+Hfh811+AHAEama/ruDJ3H8pfRtB6a5xK3XrbNtxYduQ0l9o0inSUTzyxLjSMkdi/4jwCBorrDgVVZnSVWmkD+V/2u/qpMU17H43aa8fBkW5OSrV1vBnPwJjMFmG/jegFfOykLpvrvWDkl6fBAY2B51giDdDhyDVFQX8jjlHSRlIfW+KA4C7mpmNrQIBiRQTKWboNKc86Zo2laR/pF3sYmUWmvKF3VI/D9dSbwYAACAASURBVKqZYoJnv5dwOe0ZsrZBnZCmFmUImeBAfRMfYsS9QbM8wI1OZFzVlTun9Lo9erlHVPFERLUmPs9Q73B5yHWpqtioUG0IZrVuOyCF2CSm0zG02vlUFbukhoXlGuCERkQR9sQIhFEVGVO4XxQows4Jzg3aM5FDXAhgu5W3GE6ay8CmwOSNCFlu6LYN3kEtUnIvhPd2UPXp9YS0bXC5x1hIalXPpqhaVBoF/zNkegPwBcyPEEW18DeKGTF9CJIMPqsnGCJL94mpD8jEkCSJHEQOMYqk424Y/52ZHQnJkB1ABLLMcPH8ElGUoEMG61iU7TxkAxLDADOrkkrHJ0uIXTuCl9R3WCw+GqG322L7lTdwTmlEnj/31B7H6zldJ5xd8sRuTnugCPt7+3z5v3yCtBfUs3MPPsCZB+8LOFwzkjp4y7lV/tFf/Ca8KmsLlp/4T+f5/d99kcQ4osYiq/e9C7ERUZSwc+FZ2tdexamhmVj+6kfPsLoQkavgHs9xe48y7RCpPAD41x97mRsv9Eid56ks4l0fOrzPIrB9o8be3pBrxul2MGpDiAj46kphPwvz4yipnQnf9XDK93x4nyz3WAPnliRIZuOvLhN+6H1drnd7LCXKs1cjfvaztQNSqRJTZ4v3u19F8KReeVDOkrKJiJLnHS5c/D28d7hMaW48wnH7GJgemnv2vnQNXIjlTdabNO5dCUH8Y3NwVhKB/KVN/OVFMD5kN0/taIE3DzO7i49cx/rmc2F7K8HacWYGu87iZ7Q1SREBoEf17MIBo2zeTcnaXZyHWlN56r4e92w4yAX1AtmcjohG6PRSXnruMp32HuoNS8fWOPOwLY/AZiMH66tNvutbHwzVbizw87/za7Te+AqZUeKldVbufSfGCmJiettXaL3+HD0vJEsxHzodc3wtQTMPUYTY41P3Aylc2X701y7x4oWQVerU6RgpJOnpS0Rpt2NuXK/1XTNOnGwRJ+HdX7nU5Pq1Gtb6wlF93tPE6aReeGjD8S2Pp8EhTRVNC6l+vJ1ceM/9OVhFEs/CS8q/+HTtgF1esSS0eVJfDk7CXln1S+R6EhGHczlbWxfxXskz6PROhcgJk6GqpJf38Gk4JZfI0ohMkYShok+zPCPgb9RxLx8LfReF2A8xr5KZ3f0hAHe1ZBbi0Iat6RBFHmtHEVZtAQ44vDTEWExUC+4SErz0e5nDe08v9QOx/Eh2HEUxZKmQZ1Aih4LBe8i84tMI7ZkhpNVBdyWx9J3BvKKpG1yPoiChGjBxQmSEWEKKX2stktQQ5wGP5o5BDNUEEoKKtx+M/b6Wkmfg1JKqgo8wNg4/UYSXmFRjPIaOT0izCJdGuFwhg8J3ZCLZ0i/X5YArEIDnYL6ihae/9k8wywgAZEgN5ehMzoO2CSptrwzD0v73VWU1JwyH9/isQnoDBMWrZV8DIGaGsiSmbzcUKUAuC2dXY0r7nCmiIQrtQ0sAzYqYXQjjZocYkDODk16huFYo1bFHEgfRJIY1gxp7F9CtgzPeTrrJ2EwxhqzXon39Yt9Odna9BvEqrdRzdnNhYOA9CgQGUZJIOLPmaafCMAiG87BcD6nYBDMqiRQT+OLVNp00LPBGYjmx0uiH03X2W+R5ikhIYLJ05gy1XhoYRNJk/8b1fr7ORnMBO6ffoDo4vtbkgbOrNGNw8SJZZ4u8lyA2YbXh2TzTJPWG5UZENKeHarnn3H+8Fk7pgFOrSR/y6DCKI6VeD/acJPakqSV3gZmph0Y9709hl5ujDUXSAva6lExmnSvlIc+teieUhwqmOCwyHrtYQzIH3mPqUdkYIRhcBpFLucW3GpSGYanlSFRAxTuDb9UGzaTVjLd8mDLT/N1Od7dkZm6OmcW1Jtef/322nv8dchUyp/zGj3+UdzzyweDdr1oIB0cUc+bhzCL8yz+aVl4Oh3eFejncnhFaueMv/OTv8p+/cBEjyoffdpKf+Gvfwrox5MAXPvEpXnr2RQRYe+A9fNvf/DcsnnwIfMan/+Xf4Vf+6Y8hNqfeWOYD3/MR1tbXmeC0VU07KX/7+9/F3/6BJ5F6xMuvbPGdf/1X2WmltNuOv/fH7+cHP/yOoNoQ1CKXzz6xy3Oan/4zD/cfXYHe/uFYa6rCxvEOG8c7fdSMV14auGZsHO/yyOM7eA95Lrx2E64Zh1KFCeFQMv3/jqB96W/qEsWsPHlf/5IqaE+D/XfIA1asw11cJv3EvUECM0r85BvYM1vgDf5GnewT5wa3iIKtmDNC0BjeNDazr4X/2Mx0s0fdxb19NIpipyxPNIGZPN7npQndnXQoLkMB6IIOdmKCNBn+mf4OX/pklbvtuJQXvLVvAmxQBrt7CQ1TUpk7Y/jnZqnvbqmzCy0jrhl68NpwMPvtoaE5U3Z+lntu0oZVSTLWh/LrvktHdY7OwZyqolnfQAUzu0ultOj2p4y/eRJ7K57w0mcImAI1c9jscSefWyTAcI8/ixHEOLI8I097fSO2aSSILdFVBc2KhVE4+ZbhNZF46hGIEeqRhFApI4jexLMNc6qCuZXhTqD4YhsfHrbASGZ7P1rc3/eGmbKQqsKSREL2rWH3r/C3xxiZSxidnRSJLdJMkLxAB+65QxezWMWLGfGaKdGSy3r7oMNjzFhVybKADuIKwAOp1zGFPVSzIcfmvt9kAUdlFLGuyErjwUkRDgaIDy4YvrCleQk/UOyf1c8kxkBsB/b/Eg/wLqS7W83sG9KPgsYksztFImRpxgu//2k6rfYI9I+geCzf+ZFv571/4HiwqPW2+Yl//nt9CeyJh5/kgT/6Ubx3LK6dIlpaD8xA4dkbEb/womKiiGNL8EhmWb0VuBYxjMDBWKW1l3Dj4gLd1I1s8qqwsJCxuJzOxNCuXWmSF17ztXrO6lqvn0ptaKjIMsPW9foBrEoRxeWCH8qt0m7FXLqwUBwKBJvZUVKcRHzsc2+w30rJnSeKDD/4nY9zanWhSDtVTZrDPcfgz38wnLLWY/iFZwyvXg2G99g2OLn2OEYgV6VRX0U1xzulVq/zDR96XzFNhbTX5VO//CsIEMUJTzz5LmySjJoSRMBb8hc28d1GmONWsd9wsW/n81sLpFcXQ3mj2Lde7U8Td2kRvdY4wNBEIL2+j3/2YvDXNdC4dwNTi47Eo+mo6e5mZkeANAsUokDhpHqnn9dactfjK597nq2rO9ih1ALqwUZLfPB//cuceNsHsAIf//jT/Nl/9nPcuLFLvRHzN37ke/ngd34vaZZRiyOi2iJo2Nlf3In4zfMJ3sScW6+zk9tbA9IbZ/ZGae3HXL3coJuPnkA6J2yeaLO8kh7AIKuirRt1Op1gzzp2LGVjs4svpeWyeVHyTLhyuTHqgD90fVhqa7ciWvtx8UmP3DWjlkR88osX+dinz6OqrB+L+EMfeJjTmxE6Lb+Cg1Mr8MffW5gQavD0a/DyZbDGEcU1No4/RgTkKqhmeO/wXmks1Hn0ve8NiMVxzGf//W/w6d/8ErWG0lio8fi7voEoikclNCPgwb20itutg7fY+3aoffglcDHqDOnHHsC9ugLWY060qH3zVwq4EUW7Z3FXQ/zpOOXbbbLr++E5rCE5vYZpDMdq3j10d/uZYbACsSlQA25B4xyc+tzh55WQ87PZELIFsFGA+smycM1YpdvL2G11iQTSPEMEFhfDaZPxPdLWFlmWYWo1RFYxxuC9JymCr0t3lSiJkCQOmXu8jroTjPTJQEVWKYkjNIrInSdzwdVDCfVH6sdqEkorwLQhLcNsbARxHJhXYOjafy1DQ4VIcL8pP0+jwNhu36JSVeI4wkYRuVOkSGAjSWEy8B7NJxjOFbQnfTtb7oOLhWLw5Lg8BdEiI7xBJCqS8Zgw7lIY9lWJrBJZwol4EiFxkS3JFe4gYkAcEhUqpAk2Ls0jyG04eDKKRB5scN1RZ4O0hQZ1c9IwGkEKFBmxpkB/OUJ74BHSXS2ZqRj2MuFqR7CR0kQ4fTNzt5TM+l7/d5IMHsNWz3CjAyYSGo0F1jeP41yOmIS8u0P76qtERujtXh1xCB6mYE/J8N5jrcWVIpFA7pWta23eqMXkuWepEbO6UOPgLBWcc3T3Dub6TGoR2X6b40t16sbQzWIWkmiiicR5SFODc5NndsmQ0rRNWgTWp6knTaO+2tkfKaNH7sV/K6QKzUipGcV5TyMRtq+3uNCo0etlLDYS1heTwysy0KRFTXOMCk0tpaoQvpTnPbwvEkqnKa2dXaw1GGsxtQWWz54hSSxxPebCtQ4mCUHoSw1hfTlAq6t4aKSQZ4gGpqV7DfA2nHVFCotpWAaJQ9u1wI8BzWc1TZRmn7vzdPOuZmaZhV97NeIXP1tHrOX+1QZ/55yQxMqsOVCB4h0MndjdQRIj7HvDP3m2wfPnG6COP/q9/wM//uM/jjEGl7b5rX/w/Xzlp/8KcWJ4cUvwecAEG/ftSdOUV155BYA4jtna2kIkxBBu7XX50z/6HxEROr2M7/8Db+VH/tT7CULQkDNxHHPjlVf42C/+Ml7diPTjvVJLFvmxb38fxsR49cRWDqiYANYqO9s1drcTpq2E0hn05Zd+m166j6qwvHwc9d9EnnfHShdHA3fJrt9zwrfc0+Mj96Sg0HWGv/Lj/4ErnYhWq8P3fccT/NgPfSBknJowHwO4QY2P+F/lkfwVjMCCXwa+CSWcPl+99iW2tl7HFj58L3wlSEp5B97xJ/53fuAv/wreOa5fv8aHPvghrv7/7L15lCXZVd772+eciLhDjjVP3VXV86iepFarNdAILBDCGIOZ4emBsfEDbD9bXrZ5wDKjn1n42YZl+wGWQTwDS5YBg4WRNdhIQhJSt9RCaqlbPQ9V3TVXZeVwh4g4Z78/TtybNzNvZmVmZVVllvpbq6qy8t6IODGcHWfv/e1vnzkDmvH935Lyz3/CMXtSwCnufsWhYD3h2DjdD95c9TJV3D3HSO97CQ2WcLZO8fHr5hP6QYZTMxajF8g0ZnO6mbKJjRnG4hE6Pr4ROl5WTigv+CBe7H7qvhKZu+wrM2NQDB0VWkUMr6tNMUmNrFajENBS8e0CUyqh61AW9uyUSvEjihHG8fsQ+sYuUh2UmXYk0+bdglanRE1VfD344Els1ZZ3PCGUC2x7CGApaSQWax1ooNSo5z8MGiCskDmVAT8yhICvgubeh6pgfPGdFHqa/5sBgRjaqFuA2L8y7+TMzJXknQ7tvIxUFp2n2CyBCBhLQqAuAaOQ4vsVDNHYB0KIyQIUyiL+W7QFVYPL6qgqJmtzvlUw0+piBLplADPfElGS6P6J8wQbS6/EaCxTsgqpR3z8WQuJdZjQN3irg6loIJvQmG1K57ePODZblbQ4uZAyhkWMw1gXeyzmZexuFCo+zgZK3qwekbdlBVylXS+VhVUfmdxSEa96Bku9J9cYnzXWkWUpRmKzk54EW5ImBHEUZcD3X7HznAWxFpMmiEb3tKcSIklUwegnigcvRxU6ycuA1YBqWPGSxcXucg+1VD0OZH5kPVoMYKxiwsAvNwmU2IuhDES5aY2y46qKaIwfxS72MZYmSRJduuV8cRFIE4yzUZXCxhKv1MaXq4ghtYbMxjBmUOj2hH8DaKyPi31ZfUmaGBJnAYtzDuMSXLLokAaCkUh3s1plKQcuPgrq++EMCYvI6Xa5c6nOp98BanNhU8tmi1ltFwAB9cy+8gTn2gEfhNt2B773ux+g9Erwgd2TzVgsfJnPd7A7eQ+dToeyLJmeniaUBaN3fC17J6/FJQ5OnefbkifxVUOPl5/4Av/xN8+hQWkmgTu2F6QS9fhvlqf40b+yf4nrLBqo13J+4/cf7f/u3h05k1nAYwjtOW68aR+LH0hVxbmMbZNdjPGICczOJHTaa8sTibF02lPMzL5S1RbC6NgeRsbiKiRLxyqu3OYzZA2nvGFvznSni614dh98Ka2qOOD27QW3bisIRYmdPsG///1HL8i7Ms7x3JfmmDoVm5EkibJt5oWKayecn27TbjmC90xu3853f/f3kSQJebvLrtvesIzZEKZeyXnhf+WcmVp0HiZQ79TYYSLPDAX/yhg6l8YWhIzi7ryOvgHLj6LFSRCDFobwyigsFwftPc+b0G5s7trMxYXmy8EYNHSZfu4znJmao1N4vu+eN/FT7/rmWHwdQKfbMfN02XlmS3XLWq0WJ0+e5Pz584Cw643fz94kA2u57uhT3J/+e3rZvp/8k0/w/i+9gAKHR+Bv32oZT6PE9n2vP8D3fd+NS+IXmhre+8GXede//zBdDw0Hf/M25bbJqtv4NZO89e33YY0smoiCqif4LtDBusArR0Zot5IVVmBLYcTS7pzj5ZefxFUe8623vJ16bRs+FFFF1W++liFBYTQN/PXDUb2i6YTfeTrh956KNY7jTvmp189xeDSQWeG/P3eEf/qrR1d1FiatgxupVsgeDY/3PxNJwYwQ8jluuuUAv/LD/4I0jcut0nuKbhfnFoUeEuH0izmf//2Cc92F98YH2Le9y+6bY+ZcgfDcJD7EDKw9sI2R77ozLhGB8vwxwuyziEsJ5+vkJ5sx27kYKkT5I8slqaC5SGzqBMBalgOigknqmEyh6OC9IUy1KyWJ6ktX4m1SFbqXXvHBIwSMMdRqNbrdKILo81l8dxaso5ibYrbd6ctTmTSj1hzBGEPS8CQjXWwaGdwFQjFT9uNoPSSJwQdDUm/iBKwKjWaLtF7iLdgkUHY6eLNcAXFcMcRPDM7IBS+dQuSNASIGYwRr5xkgZdmlKDuEMJ/J24wIAaZzKEol9zEp0kxjAsQYaBfKVK5kBgqxNEbr2FUwFeJ1HkykLM6ClnTKgJOcPO/inO1LiZtFJWZxh5GGmdWVtOLe9brH+wBZbRHdIvHz8VPrCa28f3O0DdpNoUzRwi2/XhYqpY7Ln0hbDTb3yuyiZLN7F/wKuzJqsMaybazOrolITEwdnDlzhpmZGQDqiY1qF8ai3faCITcSy0Q9RcQwlnmcU5xTxIMRN/yYQGKUkSSgAhahljqyzBBQkiRZ1YvCiNDOPVPt/MKdjwRqlZKRVsmJxLl+Oz2pZG42O0QE6xyqKc5FozwMSuQ/jrgoQbTiqalibK8b1vKoS2A0Swje471f0BdBRBa8tFQVk9RIRsdIkhiza7WmCb7EK4xXArTD71pAQycmxYCoW7Sam9NLv22CeTUEjmVu1qbAxZBce3690QvGNC4lVJXJZo1/94++ibzwuNTysS8e47u+83tJaw5nhB9/8BZu3TVBqYoWUXmjF6P5jtcc4u237AeERJSJTOl5h+Pj80HcBccMwm2TJT92Z6eS3bH8lQevZ/fOUcoy4CqNogtKVqcJ73/iKL/3qTPUkuVlqYMKqVF+6NYW22tKp4SRke3ccMPX4asmKc7VYku7TQzVgHN1Dux/LapKM7OMnz2Cvnh0ycqo5ZWbJzx/987WBe2AemXP3rtoNncTVtBy0yKntmMPR48ewaY1QjnP8k/TlDNnzlRZT0F9l+13vJ27/8m7OHXmLJ1Oh5/5Z/+MZ599Dqzjaw8lPHiDRuWiBbfZQHkWP/UH8+VLYQ5kURZh6AAlvq02qc3Y3NnMi3mVL8h9b9iI1gVnDYeu3RmHU094+JkTHHnpGcoANSvMXtck2Ba+elCx8w/WrpEae6VqPwYUVT2jKlg3B7SWHE+BRqIcaGpV4G2ZGKszNjGGeo+q9mkSK8IKZ+c6vHBqBpcub8y8CqlVZtttRgTauVKvT1Cvbaf0kUsWNmHAfxhELGk6hkhczTp3ivkVyTxCgGaijA3V+V+I4OHabXXGx8YIKxl0X8B4k06ngwSNzUWZX5V1OoO8PCUZ2cbY4bvpNk9iW3OcKhscnTM4a5nqxFXgUNKI5mh5fP6UpNdcZzX3ZxNnM9fdXu0yQC6SStHffhOcovYa3BpDqPTAxLhY75Zm1Gp13BDph8IHimGrLwUImJ4iyABim0OllffEgJSicl3CYgKsgk1kqDslianks3XFl7EhKlos1AhSgpaElWoYLxZB0Yslbw7GgQBQVH1fEWS5agyRmBxfTV2q95ET1ilCZdSHQ0uPLT31tIakGWpKnBGcNSRJQqvVotvtUlR1md77KANUtZ9zEuNnYqo6VZYxT0bA2flTDgOt55TIP+tx0ERZWIBuhmboNwM2dwKgH89b6wPb49T0yH2baEXg4dDuCb7t6+7CiMUJHG11OffUy0vedarKzTvH2T1aG+opdzuO81PZks+MMRgzyjUHdxE5RYZ6lg5lbdvU8MizM7x4NscttlgJUCZ8w837V3YtFKxRdm4rGEmV1Cv1+vYVJ+5FQxUzXsNNNqoa1PVBjFCenSPMdq/4BBUxqC/oPP0FxDksgafPzvLsmRlqiaPb7fLQQw/FlbUKh3Y2ePbD72au42l3u5Tt8/06yuUPAtq1+COT9LJMZryDGenEl6ILmH0zSGFRUXQ2Rc9n9Dum93UBL8cVWRs2tzG7KDkb2ZTGTMvA619ziPtefyMiwmzp+cG//x4+9fDTyKL0eyrKj73lDt5x2zUUi9xCEZg+nzJ1bmltYAjCjl0Jr3/TZK/OmVAuzXoC2Kbl//vYCd7/yGmWJoO6/N2vuZt/+VdvoD2YFR52XgLtUvo69iF4vC8unX0IkF0zwcj91xKK9RtNscL0J14gn+5UKhJXENairVnaH/pPADRTy5985mne+8UjAExOTvKhD32IHTt2EKzlqfe/mz//2Z+iuQ26XsnPWYyLCYRlIYrOpBSfORD/i+DuPoYZb0MpSK0kfe1LccVnlPKJPZRTe+gz/q9QWeBqsLljZkRN96CKhEBQxVS1iIMLBVOJ1M2X+1Tid5skZrYYpgykM12whiQvSUQgSfqB+YjoIlprY5RiiFVQIqN8MWJZjCfkxdLfz/+v/48zBjWWWi3urFe+NNt2FASmuwWdwq/5Mm6IIdP+Xyz4SRUtPaFbRvrNendvTGzdpnGfAssOvLcwic/fyldjWGPi+bK0BWey+EtIvRnHkTqSWpMiGDIXs6xzc3OkaUpwdYrQIWt0SJpR602lTghaKRIPGdDgYdKBzjo2zPPGFDSPvSpEdAh5tseb3IQxs81oYfsQIU0SammCMYY0seQhkPuAD4MPuFKEQJZY6pnDkuKsnV+ZbcI6MqD/hkucpZFYTLLQMjmigS58oFziImq/yHyZnfef38HnWCR6m3m1SpOiKtqvJpkRIa1WKDVnsbLBTULWCiFmpQcWBn0DtyFZNY2VJlb6JNKViqhLjZzBMix/7OpyLjR4GirNssiZWClWHYKPRi94DIHUKImJVJCiKMjznOAtRekpFUoveBWcEWrW4EWXhgyMqXgz1QAXxAJ7ijKL3oyiLFmtb2I3U6Y/+cubdKbH+rInnznBybOzuMRy8tQ0v/uHn6bdySN7vYIPgUY94/u/841sn2zS7RQc2jfJ9dfsuKK0jNXAq/LlZ44zNd1e+IBLZP988CNf5LEnji443952X3/jPt56/R78kHN0LpBmS1csqTM8dWqa93z2OYIq9cTw2JEWJ6dzSg3sGW3wdx64iVpi6ZSBwxNN9ozWhx7jkkOV7IYdZAcnCaXHGmGklvQNmh1JsaO1i7vHAv58B98qMFYoZruc+PRL+HbJaD3l3Q8/ze88+ixWDGLg4EhJZlc+ZDfAoVHPXz2UV54F1GrjOJsRQiDLmuzefRexN8T8jkQMZdni2LG/jDQRYzg63eLoVIvUQGlSHm/cTykp1ho6Z19m7uVnwUJiDd975yF2NWvkIbC9lnDbjgY+RH2z9O7rsftisxt/dob8kacqtVohvX836e3bYi/UQRhD/sXTFI+eiLpm1jL51jfiJkY3p2rGpjSxFUxQbrt5P7fbKCb45Wde4fFf/wAnz831yZgAeeHZvW2Eu+46zPXX7kALj5YlWlTMwU0MK8Ldt187tDqhLfDHH3ucv3jhJG7Rqk2DcuvuCUyVVVuMojDk+VIftJE4Xjk1w589PlWt9oRaIlgj+AJqzvDaA9sZyxJ8UPKglCFc/quocfFgx+uk107g2yXOCqPjWX81GrN4VQPci8GuEcQIxho6Z+Yw1rDkNVBx+56ZTi5oO/PCoJoDkTMoAp3O+WjYAlUpV/XBoDxTFWucnTvdj29OWNi5K4bzpvMOv/nnn2K2AGeIvU2TDF8Gmonhzl2j3LZrhLLyXLp+/r6ZXeMk1+2KJX3pYJmgIm4Hkl0XRT0HT9lI1Z7uOP0q6c1caL6pJYAAykrN0wVifQlEzYBB30mxKD4v0U5RGTEuyLjeLIhvxEUPh/SE8zzOVDpVAwiiOIHUWcwaunnUEqgnQmp6rlB0ZUsfG6UUPkQagfV91/ayGjIF9ZWqbYhxMS0ClB5VE4P9G51V8AH10TiGMnYLj7+bZ5z2KVmhjConK0AQJJT4olfmBVkSq4d8gMwJmas6aS0IAVjUWjILYaCXT6jcf1VwiSOtVFjiQ1IiVR1vtwzkZaBbxRAXXKXq5TA0mKeVZK1WlQCyMHa78HpXLvImnFubO2a2AEKjlvHg3YeZnm0tcMk0KGOjNeppCro5tZbWAwvcdO1OHrrvhiXz11pD1qzxl6+cXVZvbBhSazgx2+auvRNLPAUfPDtGG/2Jc9mhYBJDtmekmnxKNpaRWCEkBmuWJ+5uzPEVsQa3vQmNFFdPMY20n4SyxvDaWw8wUk8WxGwXIyjsbyi7DsbvGGN48sWjnDs3g4gh68LM8anoZg7ErsRYirzFK9NRc27wGReUQi0PvOYQamLW28+1Kc5NgzHUnKGeDKu1jfsI52YoXz4Tu62fnl7BTy7R8gRVABX89ELjd8UUmy8Mmfn0r2yNmV8lVqbFEBbpmimCUWVMY8v7qwUKzAl0xfTLvnvwzvEf3/1B3v27/xO/lrP2ntv37+AXvvEerDULJ2UVi7oi8TEglJ7G3jGu+47XxGyl6vxq4jJAqOTHf/5W9QAAIABJREFUZwt8UMbGavzqr3+U33jPJ1GBkVrK7/7aj3HLDXuXZIoHoYBDqFd7tc2MH37Xu/nwx7+ISbKKQz/knPorsaUipMGXbJsc5U9+512MjDcBofv4U3Q+9iloNhAgYzm9v8qd1YortohInr3hVtLXHEaLgPpY6qThHIhSPrUH//ieqoeAZfLrHyKZGF9bo+nLhE0dM1sAiSuVyWHL5P4vLsO5rNfFWceEFGBEYWTItkVQLMKMh6Tq9LJ4ZMMO2VHBE1ucaVikInulX2tVpk2rZpIXze5f7yA0zPuHvSwqvfuhTA4wGVbcT7Whqc6lXUI9ib8fSibRJT/0kYcYG530ymgVCp5TJaALQy7LjaXHK1kRvbP0oDHR0m892J93MvBnc2ELuZlXHkrFS1oHLhRnWTOqNnymcoHigzfgeuu8MRs8stVIxeg1RR42rMtBhNfBuP2g/LcuM6jLgWrVEm2qVpnGxWPpdSda5XMgxO+qRiXZdRroSPOo9Ph6HZKQyFbulbOtK7zSI8HK/FhFq6bs1ZUIWgnQ6KamZrxqzFYJcQlzZ0/yxY/8yXB9qWWgKMYkbN9+I87W0Y3KAolwixH+7ptux1ihVZT88Zde4nSrS+nhwRtH+Gv3bqvGMI8yKDubGXv3t5bU7sW+lYYzp2tL6j03CuoDbrJB/bbdfeZ+I3M4K2hQXCO5oJrHpUIvTDTaiBnL0WZKli5y4U3VW3QN80Zzz9/8tjfx1tffWklerx0+BGpZQpamqA+IZJgdXZLXvYTNxlFv8E9vQ1vJst3Jl0PoPIU//xTqBW17isd3xKSLKunIIRoP3hjfPiLYeiNutAntxtZxM680rCNvt3jqMw9jjAxl3g+DKjibUhy0ZNl4JRd98VDggDUcvP1A7M7U6vK/nnqFU3NdvCrX7arx7Q/uJFEWrHR6P/mwuDNS7LjUbjvOnqkRwiVaoXlFGin1W3bh2wWKMj6SkiWWgMaeBVeQwyQi1JJYhJ1ljsQunrS9VdnqL47mgTfffwtvNosjn+sYXxEz+ojBjBW4649jXAmlw78wDpqy1niBFkcIrVNoMOhMhn/pOugmqHrsnfto3HJTVVGvqGfTcjc3tWrGJcNa3IRY5xKbn5pKaWCNnbNjGUuVil/jW3PZfdIL62g/aB9UYzlLqKgWpVIypLSlv4eFCGHQPY3NVTbq8dBqnD03MvjQb1KsXmMTDdWLnuwbBe15mEOSg2tWjRBi/C2s3JBndfvquZTx+dUwwLfrdYjvdYta4WDSL/MTojx91d7Q2KpiKVRsIe2Pff7wm9NmfPWtzIwh73aYmel1gVjh/FVp1jMy59CQI77D6M5tkWC5ysumgLOObNyRpoKGjVmei8C56ZypqRwjwmxecHB7QpbUUJRdo8mSDOgq9ooIpGkkXRpRytIQVijdWS3S0RriBM09biTFimAsceLJWtcSVxK9VdkVnjeiiNSx9jDGpLGtYEPB5/HFUBq07YbG0YIGunm3f80bviRhmXvQf/FvvuzlYmzq7kyXAlJvcPrpJ/jk+94b3cUVnsnSK6993SH27d9OkRfY1PG1P/y1yBpXEIJgbVqRJDdo2jrLh9/7JO/506fBCLtGHH/v2w9w/c4M9cpoGusZ13K0EGIZ1IGDs5Hz5QKnjjc4d7a2poYmC6CRZLD3666ntr1B6JZgDSYzkEbFj8hr2wLmrJcRNGYTdCcqSNzNjI4cRCS+bPXe3yP4o4hz+GNjlJ/bX/XEnN9KRJhtz/HY0WcJGrXmbrk+5ZBk+OUM1ibtxrQYm7sHwCWAiMOXBa3pE/NJoWVQlOC729CyjnZzxNVojO+cX36vAfOTdYPe6Al01HN8Jsc4gxFld9NxaDypqA3rK58TAVt1t3YuIEb7Saz1IW6Y1BOSZopPzLz7tgVDHEKvnOfKzxuRDCs1wKK2i6nFnqviQJJQEW+XbEVQpVt2CJoDgg8rdUHrne/mf9msrSHiVoECNsraLEGSgk1irKF37stk7mIsQuYnXy8+sSiofkUQ5j0A08vSV9Iva+Uzxi7iS6/B+hNWvWbGoU/UDEHjS2DzeysrQ3rUjM02b3pqwYJYg/Z6zsaF8bCvx7irErueG1+t4nwM9ntBQ5h/6Wy6812KqzJmJlmN0889wStPPQayqCzEOMq5M9x2x4H4llUw20cgc0smWgiBsYO7kYkRbOEhcZvDkG0grFXOT2V0O3bJ82qMrrlnJoB6T7ZjhPEbt+Pz2OLMZY6wmr4Dmx19KfdNNG+MIZTwwudazJ1vI9bQyGvsdKtbT/kTo5RPbKcsPUaaNG55DUZSVJV0956BRMHmxlUZM5NajZMvPc+jf/rfsY4F9yHP4dqDEzz4pjsIPq4ekpv2YsaHyC9r/EupOtb3XmVXEYxRps+nnJ9KscMyret4KYcyUN/RYM8bD1LMVWU/vZXaVkd/Obx55o1YQyiE5z/X4szRDmJhz8QIuw8KvcXVClsTjo9QFrvwZQETEzS/6R5svb6Qeb2Jznc5XGUrM6lWxFGYUYzvE7b73xiszlBFQ4huWViFf7YJ7FjfMzYwz1a/iKFVBvsie8csQb+kcosb/6WjN5Gm06NGXMHz63scYhBjowJuFc674K1cwJaOoYa+X7rgodo69uEq4ZnFGE2r3UJDwCAEX5BmtZj+HzRmRBmV/kMoEo1Y6WOMYF1Hj0HVMi+GGhWReEwj6ydNClB4ONstCQreGjQE9o85ghr2jrml6qKXGSZ1fT6pTcyWNWSRuyeUQWMzZRfLeSZS5dRsm5fOzVF2c8aylO3N7MqcpwhFkdPpdDAuocg7WGdJsxoYcM4xaLHK4Kuem4YgUGvu6PfwdPUmktUQWyBZFnmRi4rRtwJk7ou/uzWfuEFYRz43w5//zn9gbuocqpbdOw379zaWvFpVIU0s9Uat/ztJXZRMXudDaY1hrtXhkU8/TVF6BnQjCQHS1HHva69nZKS+un6VQ2CM8PSpDv/yvx3hxHTUOHvLTWO8+eYRRMFZ4fC2jHqyNvmexAVefGGU6fPZhbuWLwMNinGGA99wE8lYjZB7bN2RjmZXlM2/VohEOs50qyAEJWvU+fz7P8Rj/+Pjsa4Sw8Pda5jxNfIy5xvfci//5Ee+NYqUXeZlu9QaPPfwn/PZ//pH1EZTjIGbDjWo1aMRk7bDnavH5AvK08ef48zseUCY2Hctt37Ld+BslBKqu4zMJiiKGIsbG4vt97YYroraTBFLUGXqxBFmTp2g8LBjdD+Tk3vQqsHDYgz+TrslF/MwqrX4uQ7nT54iLwKDFTAhQJallLP7UevQ1TRaHHYMI7Smu3z56WlemS7QAA9dN8I91zT7sb54rus+jYuDQDZZJ9tWJxSxQchWMmRA3+UufRV6KAJNG7hmJGAtFAGefvI4L88YOu05br/xUBU/47KvzsQ6Oq1pTr/0Eo0JxTlH49a7GJ8cQ9VTGmifARMbSdAu2pxvz2CABrBt/2GyJGFeDWNg/Ft0Rb11Y2ZRdjOqRziHJFnkKIggUike9DSxLnRzLrZEo9o+BEFDZHP00GNyWGexzg49zKoy3yYKFxorUYesKlfRsH4lht7YVaXP8pde/GQV0Kp0SkOIKwAdKK/ZwujnK6uwQFnFj3wVDw/VNVJrkVoWX1DDnrH+gyBQ5uszEtb2LNLCMab1PsWoV20UKumkoAONoYNU1CPpC2MA8Z4FXWZMW9MmbFmemaQ1Tj37Zc4dO4J1jjLPaWTjJNscRRlo1CdWZ8g2AKrgnOXgwV2U3i/oDh55PMKJ42c4c3pqoUwyMVD+9JRjupAVHyER4fj5nFa+AfV9AwhBaI4UFald8V6Ym72wzr16JdvRoL57BC0VsYJxZssbsuWggBHDg4d3MV3WKPMuo0WX//KHH2VxazevMJEpN433Oo+XHLj1XhrbdoJfbYd3AWs58+JTnH7pOVyysD+qSVLyUy9yyx07MWlUs03TJCrXKkiiuIl4T0NQzIlFEf/FmbGrAFvWzZR6kxf+8hEe+8gHsE5wScqhgw+STY5QFMroaBvVOS7HWyaEQJolvOaeG5aO0xg6nZxPfvyLTE+3F8TTDFAG4T88kfH0lF1dD9oN5i96L0xMdpmY7FaqGZbW3BghrFzqFUrPyDUT7H3zYXyvCe/VQr8YgqBgjOUH7r2eWm2c0czyR196iR//uf+4pN1f6YWbJj0/ekdM1nTbnrf9+A5Gdh8Y2oh5OZg046UvPVrFxRY2iC4K5cYb9/DA191F0ZpXQOmt0k0G2V6tmqQo5kUWEmj7NZdXz8tny67MkJ7wcFnxvxadxxU4rWGXUqgY+tH/Wrri0ZiJDbrMkAddA+jXDS8Oc1xZbJqBbACqt8XgpB/8tMr0SSWK2G8ONchl9FTa/rE7U//GGbv6Jjsi0b2UnncxsC+I1Sj4fgNsWOgx9rUWB8Y2KNIsxiDIcsUvWxJu656N9G/k4hvW/0Ylc3K5ptpw1dZqAGIRWfTuqGJtTgy1ITwvQfAyX9QuVORdoOYGWWaXbvyr2uhqsmV9VCVeKqAJqoJqdOP6KrQSSPqUs/mb17Qxww3RNYy7sRRxr6s8vlQyTxYh6e+n30jEgGCWuLg9lAodND5DqngSRMbiMyNZ/xhX073bujyzFViexiizMykvdW1fzn3vvjnSzF8yBdXlEILinOWee6+n9GEJ502BA/dYZsulskIe+J2PnuTjXzmPEeGabSk/9k372d60hACHt6ebshnrloW1dKfO8uQffojuzBxYQy1kHDr8OiKXMXD69DOUPscoXFMb4efffh+LLUJQaCbK/mboL8qe/p8f5MmPfoRVNA8YgMH6wM23vy5q/Rtlz/45jFWCVxqNDN/Nl56GMzzyzAy/9qGXASFNDO/89m/kG7/nRspuTlZrktiegdyi838Itm7MbIVxiyhFLuTdeMNCEEJosajn6mWDGGH7jollXd/dQ1dl0AU+8vlz0SAbGM0s9984wjVjMUCvXi8uk/kqFkBECEXB9AtHaE+dJSDs3XMTI3v2ArFD0vETT9DpTBE87NyRcPuBHcDCRJNUmV1fvTiNSXjuuY9yfurkgpjpheA97N13M9v33Uyet3FO2b17CmNDtVLU4bxFAydnS/7sy9NgoJY5fnDbIfbfeT/a6kAI6KoTEVsHW5iaEVUCUhP5rnZRCUePYqAqGKOI0T4pND4Il3e4qw38GgHnYn/IXKDwSqcIWCOURcAX2udxXQ70VHJ7CEUZJ24ZYuZyiz4+i9Hv6SGCOMH04u0GQiV1HtT3yxV1YDvVSGrOyzC0h6mIiXQ0x5rWDj3GUAglqr5yKX0Vf+1RLua/nFoTHZbERCWMkFOqEDyx7rIo0aIY3PtVha2bALDCiZbh8bOCTYQsMew6AKkMjyG0W47gTSVAqKTZxmjxbyRE4FzL89SxWZCY7dzedDx06xiIcHB7St1dvvslYsjzGYqiHf9vDM19+zHO4bsldizbGqKKF4APGpV1Q+wIvtybQkRoNEZxzmBFmfMZnz1yBlAKr9yya5RmmiwxaKpKrTZG8AVmDQXbIQSSpE6vUbAqzM0lWKPxOU4CWRY/KwM8emSWVteTWGEuT3nzG+/DEHDOsnP7RFwubtX5vgps2ZWZOnjklOXXH0+wiWOikXH3zcJYfaGST9TqghPHYleZEAxj4zn7r5nddERnscJjx9u86z3P0iohEfipb7uGf/COfQQfzyM1l29VaW3KuakXOHvmeQjgGhl3f+trycbH8UVJrZGg5damYggw1ylp5x5jPK25PIYhewHNClr1xtu7525UYbyW8N8eP8q/+cTnMCLMtbv8229/kLv2bqNVLHThQijZuf1WdPv6xuh9XpUQCy+/NAIoIRi2bW+z/5o5fLB0i8BP/8ERnny5hWrJt7ztDbzvt/8xvtUBhcwIoZuzVef7arA1YmaLHqz4u7jKKgJoEMoLSJ30Av8h9IzBIOlm8yAo5LnS8UpBXJ01UoMvqy6Olz1GpighejYawETxPwmDaeRN9lZYC3rDD6xKPDY2pgExlqBC7hUjUPRczGUeqR4VYm3XqicnPr9Nr9lMbD4zwAVUpSiVdqGIBkIQbJZRqyaGhuVXnKsYxqW7xRu4763jZi4ZZmQw93hcRlY2TX21FInZziT2YFvCzQkByvLKGfheHYA1scGvlh7tlPhybXdcrMCSNmlrh/eBohDwgpSQjY5QGxunLEoSU2KkHOq6qDI0frTpoJA06mjdxkqSdpvSG4pcUITg/YLEUc+tVlUEjY1ZJD6APbHPoYdZZJRWPbgF+5h/NstCCNaiEwm2dGhaMNeaxVchgbIs+vVX/Rfgxcz1S2kmNmjfW5uasY6x99RTX3xhdMmzFYKQ1Up27upsChdUUezuCdyNu6FYw4CMEKbbhLOzF3V87wu2TR6k2dyGqKBGefJ9f4waweee3XfeyDWvuxdfRAZVf9wKWWJp1Nzmj6lZw5E/+xTHnnweYw3iYc+2a5HJg6gGstrEpsgYq0ZV4L37ZjE20n0+/exZfun/OUrmLEmS8A9+/IeoTe6gzHMO7t2B7RbAypUcqz32pTITG7nvreFmDsF6jbCIUhRC92y25DPvhZERw67d7cvORxsGEZBmDbttjLCW2JSJ3IBwZvai3nqqnnp9G43GDkQcZdnmqcc/RJF3CF0hm6iz85578fnCZEoIkXDavEJUmLVAxDB95GVOPfoYYiGrjXHdjW8mSRpAIIQQM4ibACIwNtHFuYCpO458YZb3ffIUaeYYH6nzD3/6ddz0mpvQbh5X9O3Oul/6i497qbCR+96yCQCMIYRAUeb4EOgaSMRQcxaDUGrs/TgMsQPR8M+M1VXrei2meAxut5bPnKuqGVxc/ah6OrmSWfClJ+bW12AVVOabiQxyCNZxqyMtwSMSCKHEphAqGox1dr5kZgB9msOQz4YO9wobPOMEm4E4MGkM2IdQ9LOIwyDEW9L1saRIC48zQuYsPkTlimKdYp89KJAYgzVRjcXZgLMWYwXpNaSmjC598HRbXcJcG+1URNotulBZL7ZOzGwxfGD75ATXHzxAkiaMpI6T7RyP0vWB0TRhLHNrC7dKzHbmXYdfReNba8MAdw3yru2XqxgT+gZTFfLc9ld7iz87fi6nWyrWQrsd2LVnlJ2VHRptJNV2azFmxCB9LZn/VekvW7WAEGNEpddVxc0G6wu3CrwGmqnl2vEmRoTpWsK5ds7z52Zpl57MGrbV0wvvaAUYgXOdnJlugUFwVuFUB2sDNjGoZFxz7WGaNaVZr5HVksg922oXc4OwZVdmen6Wv/POb+Wd3/NNuDThzNnz/MCP/DNePHqcbql8+12H+OH7b6QMqyeYGqPkXcNzz4xd8LshCHv2zjG5vUsIQlEYXnp+rJ8t3b6jze69Lbw3/ZR6NGgwPtFl34E5gho6ZeCn/uAIDz8zCwQeeM123vdvH6JWCd/WU0u5VvqDKma8gYzVo2EToXjuODrbZdWt2C8CYoRuETh1vnPhLwMTIym1xGypyqy5ruf+a3Zw975JALY1Mt71/s/ylZNTlF6575od/MxfuYvA+gQzBWgkjvf+5fP87ueepVmrGiZXi612u8UPfOc7eOrhf8S5UycRhNF6DS1Ktuqcvlhs2ZgZKPVajXqjgaQJZal0fGCmU5B7pVuGKjO49tyv9xd+GEIQQn/FJP3tetuGgZWdKvgglGX1vcHPgNmOZ6pVIgSKoNRHUyZs5SWuV+xQZF76uGq3d9lJHas9YEU32EoUD0Vx1pC5OH8m6yl56ZnpFJRBl3DN1ovcB+Y6BaHfQKX6fTeASUi2bWNbnscReU+/z+VXIbaum9nj4HiPlAb1oaJpSBQK9IHQymP3JcBkbtWrktVcEpEYX7NJwASNfVO94H1UMhABmwakBDCE/mdV+UviMQEMgcQJ1gqivdY6gorMqzOsBxUfDIj7koWGt4coLKn9ki+3Ii0lcpmKAkIB4hy1iXGKbg4hUMzOEoLvJ2cueB17jAETS9OGCdyGoAvDfjIvYtmTTuqfslnhswFXVpwlbTRREYxziE3Ii9gDN7r/q1sJqyo9xkzhY9LDGMGg1JxlR7MWWXqrtOq9ONxMEbvCJEkSS9jKLnMz3SXfL/MckTAgxb6+uOjVgi3rZi5EbwUWoYXH7Rml+eBBCh8nQ/crJ/GtfMMaNYgo01MZRdcQKvLinr2t+TEoHH1htD+6bTs6AxMNXnlpFCtC4ZVud776WDsF5ZHTFJVunhkfQZrpGrmWQpjtEM7PVccXtFMMtS7WKufOZnTaFmMVX5pl0uUBEcfu3TcRQoEEwZ9s8eX3vhctA8Ya9j/4BtKREcJq+xxUx2h3SvLCD13JZakhdaZa3SqdqjsVQOoMWWr6eY7ZdtmnUTgr1NL56zrXLfFeESO0z5zgxOe/GI2ANRRn2hy45laiuGuKMelFUUoS5zg63eKXP/alaqyr21cIQjMJfM3+gtSA+sAbX3czt3zzN+P8Qpe90825746bKKdmuDrm8MVj6/LMBrEg/RzVTt32Bo0791L6KMOSv3AWNjBmJAJzs46Z6ahgkWaeG28+j7VV+dTxOsdebuCc4pLA9TdMU6vHSX72TMYrz4+SJrF5RpmbSvdM0G6JP34+SrcDZCm2mbEmayag7Zxw/Pz87+zwwLC1ysx0ytS52OFHRIf2e42rTcP2bTdW2eCU48ce4+gXPh8zm6lh9333ko1PRLmHNaCT+6Er0FjAnZAlFlA0xNKjUGl4NesJWVp9pkqrW+Kr+11PLfXM9g1ku1tSlAGxlnPHTvPU/3yEULRQtVxz8DXs3n1HVcwds5kX4/Km1nB8ps3vfv65NW3ng7Cz7rk97ZJZaM0JD7z167nvf/sRwszphV8W0LwkzM5dVTI+F4Mt7GYOoDqH0nuKogRKgvdkxkQWPUDQqo5w6fmKZRU+0fDDWhuLfk0VsO9NHiH2orA2GgeFSvVAsAYaqZAkQuHBq5KXAdHYFqwvAaLRBcPKaj2f6nyqkoieVRpyar2mJWIUkZhJvTAlRauJDmAwJlCrx/ytSXrcv/VFu5frgLA06jnPsh+kfkh/D/PuqvT/gix1kXZjLWnmMEncawzXhYqOsTF8MhFBQlizUdcg4H0sVZKqOU5eoN0OoT0kmaIaGxK/CuAqcjNFDLWsRrNRp93xWOOYnunEtmECagXJLOKG3PxeC6X1Hr0KVUTd/HnKxaB9DL6XWBDyEma6JWmAIgRSKzQzhwaw1i64Ixo0SiKswe1RNfPGb5nb20tQhFUkO5Y5CqVC2/cM96V5jpT529OLbcuA3FOvwVDveg9qdvreDoBWu6Cb+6onQ4m1IN5UTAa5KLdyMUKIfLD62FJi9kooAozXPWm9TeICiXqMq1aXQ4d3NczdjcNVsTLT0jMx2uQPf+uXKL1nZGyM3/sv/41v+b7/F4gxlV/5mW/llq+9gXZ3PsskApJYpj/2HOWJGSRZg3LeAERizdwLz85TOjQI1obIXfPCkZdGEYGas3zs2ZP8qz/7HGniSIzww6+/kX/wltsoSmVizDMi3X6Czx87Rzg+tfZrskzRszHK3FzCsZebfQMQvKy5AXDNwmeOp/z2Z2s4Eeq1hN8oDOOmMiIbAJHoVra6kRhqjTAxkvYbiLTzklNTbZAY4B+rJ5VcNeSl5/RUJwou+sDP/vIHePSLLyNGuH3HKD963wOkJtJBrE1WJMiuFbOzc7z1za/jN/7VTxJCWFM5lBUYTWLdp6qSNZro7Lmv2gzlWrCFewAshDGGfft2gwhucpI0qXH0lXOIxOyiTwxurIZtz8sMiwgmsRuSFFCFoli46ht8/soqQ2WDZbYTODPTQhJHZg2jacK+sQZFGag3CoSBzFXp179oXGYCaIAiN5Xqgq55nvTcu44XznUiQ70uBq8bT2PrkehjYbfEAnyZX4WVlWoFErOZvRWilOB9dPHLoJw5N8fLx6YQEfYYh3MNUmerAH3Y4BpSJcsy9l+7b74SY00nXf0rgPeVKuzVMU8vJa6KlVkPWnF71JcUeU7oPwRKveYYH62TOUteeGbnujH8YpVQlIRuiazxoTPWgLP9h3WlSxk/6yneRoZ+Yg3Gmn7MrPCBRAPGxjcz9CSL1hPPU4xZutowRvtJitU2+13pGGLAGXByaZhi89d0vnmNDFAw6ImumoUxtDR1TE44jAidMuCc4EOUMPIaCDovPX0poCGg3eLipHd62LJc0MuL1cXMlntKL8XTe6Hj935e4dja7nDPnbfw9/7298UYlAif+vQRPvPI83TzwMFrt/HmB64jqBJ8IDu8Hbet2edlrWo8AuXxWfy51oZI7fRQ5Jazp2rVqSmNZkmttjaZbBHodBytOdcf7vyHSp6vz52+khCiTZjrlpjqjFRhtOn63+gUHikCYoRnnj/Nn33qWWxl3Q5nDXbfdx2KsH+8id3gONmyoxbD2pqYzG96wbl1ub6z3nm+eLuNsBcr7GP1K7Plvna5FnYy5Odlju1bHR584F7e+JbXI4lDnOMtD30PDz/6JXzwfP1Dd/DQG29Ay4D6QOPmXVGYb7UXWmKGcfbTL1Gcmo0rtA2ASHRVTxxr9n+3Z/8ctVqHtVxoEaXTcv39DNtS1hgju+KQqI8226pW3wojdcd4M+1rp52Z7lJ6xVnLo4+9zK/82ocpSsNIIvzCO17H/a85TOGjiGJeUTgu6YCNQUKoCMvr28Wm+c565/ni7TbCXiyzD7fqpqRbDT6gnW7813mgcq2IcZXE2aqwfJ4VLyb+f2jHmwUQCBLp2kHXVsC9iu8PGhrTj2mt/hjRFVu9+sdWwuCL2RjBVm6+VyVJLGICzpn4swi2iokWQekW/qKVLHpQYrDeVPMnsQYNHl+WVZG97wf2rto5tslwlVAzlkEvpR1ifMs5ixIf8ryM6q2LM02re4lWBrCqPlp11FuYl8Vd9SlIRT0oIAkzAAAgAElEQVRYwzY6b6CvOsj8mUUV3DLe4qAUhaf02l+pCZbUmljmJDGuvlHmXei9l6JxLHzAWItLEnxZkriEeZbcq7gcuKoSAMOgPoAP/Oav/iydTk6z2eTjn/w0f+Od78aahZnMVivnjlv38cs/99fodMqVYypBqd+2m9r129eUNq/XHI2PAh98FHAX+jqnTtY5e7q2tjmhcMHF5RZDj5oxNpJgREic4b1/9Hl+/bf/gixL+v0RerWQd24f4zf+xhvxlWHf0cwoN2hVBjCaJnz42Vd4zyPPYgSmps7zb3/1F7nzzluYm2sx2qzPE+Su8jm2WXB1r8yg/yo+dP0hxBhMY4wnnn6Op545jjFuAYO6KHLGxmqrLA9RTCNBRtamWeVqKbaRMrSqegjKQih07W7KeigXmx0i82KFaWKZmmrz7PPHURlIdIgQQuB6l3DTzjHyqov8cj0t1wtjhNlOyXNnZjAidFttJvcf4LrbbiPkc1Xvhqu7G9Jmw1W/MutBO3l8SSYpeadblRaVLFBE1oAQGBupYY1ZsDITEbwPzLXy+UsWdM3yPMH7uM0q3caNoFBsFUSde0OjkS6hMyjgjKE+kmCMwSYWW4vv4qVVHZHu0i49xUUsUVVjMXs6JMEzkiVkAqHo9l1XzTuEvEOYq0qPvkrm1mbBV40x60HLkgP79vDd3/726GYOnL8PMDoivO+/fm6J5HbpA+NjdR547eHKEH51GJjLCeeEc+dbfOSjX0FZGFqM/xdGGq4vtTP7yjQP3XAA5xZSTYIqt+yZvOhGJIkVnj8zywvnZpYYJqfKVFLne77jmxGFqfPT7NwxGZU4vsrm1GbB1e9mLkJotbn77tt5z2/+qwWengK2Ns5nPvUpHnzo27A2XWToCm67eR9/8Nt/m7L0+LVo8r+KVSFNHC8dOcc//bk/oChkSffvWKwff1INvPP+m/jX3/p65vKlQohlCHTKcFFPdy1xfPS54/zWI08vGUvRnuN/f+d38Vu/9i/6BeVhbi5m0F81ZlcEbs13e3GibL2JsyuWcBPUe3Q2ao+JDChdOIfkXcQItXqyQMmh21WSxEX2vhFkjaz8njs6z7KImVStLGovyTk/YTcrKhoLMm/sq/Eakf71WdeejeCcwdoMVwlWDrsUqtFYqTHMdkvaQ1Rd1/54yfzf1U0yQlSTTRy21xez2mnZjumb0G5HY9YLOazn3Ncy2I2af5cSl2tMi47jVtXGeRAbRYLbJDdgoeGouiYNcSOV+fiYMbJAFvtCEMBLzGzF3UfOiAYF0SqBPy9is2512cuAnkLI4sWHEgvbY8fv9d1cI/MGsqcqq7r0amjP6FfHvPirtbChiun9rrojQRWjEu/VwEssGnQTX0gSpZTW1aJwLZtcChLqRuNKEOkByU88tnlnzuWGtbTnWjzz3EvYRUHfLMt4+tnn+clf/CWcc0vcjuXgfWB8tMZP/6NvYP++ScrSMz3T4djxKRLnKL3nP/32X/DcMyfxwC07x/nxN92ypoKEywERQ/A5R19+mLLs0Egt//055X1PK5mJktHXXrONLHXrjlUZA61WwZFXzhFfLMp33nWQb7x5P3MDaic9+uBEPWFHo3ZRWUoRw6lTjzMz8wrWGM50Db//TMZ0YSi856HrdvPg4V2Ru+YDrxz7LHk+S/CB7Tsm2L9nFwq0pk7ztn/8G+y84S6027rgcV/FxuPCRKevJpQljZEGd7/hviUrM+OatHF8+Ymj1epjdZdONbBje5NOp8RUFQaTE3X27RnHGCEvPGfygsePnUOsMJFuVrZ47EnQbs9QlF2kEPLCIDSjqw585cnjhDBcAHN1UKw11OtppSar7B1rcPfebZzv5ku+nZdK1/uLXgjkeYdWe5bEwHRLePZUypmuQYucr7luN3ftmaRUCL6k0XZ0OmCNodud5viT0wDMnRXybgexZlO9hL6asIW7M10CCKhX/PTs0s+aStmei803RIYqUgxD0KiS0WwkjI7USJOFemoAmbNkqUOMYF2CMQm2MhAh+A3V2roYCEIzM3grjCRgNFB024Seaq1Edd2LWVP2Srl616ZbBGbygtnu8G5HF+/RyNKftCqbEqHwgZmq74APJdPtQLszLy0uVWtSsYLJGkg2gjEOQklov7pCu5yolheDFW+Lo4vLfb6aB3Zwu2H/X3y83n4XH2Ol7Yb9fqXtVoOl22kZGBtt8g1f92aMiSUyq4Eq1FLLl546xdHj5xdkQY0RyjIwNd2O+xPB+5zZmWP91U6WjuBcfZ3nsXEQiaWoXzkntLuQiFLfeZBvOnQT6Ma0VbPGMjU1zee+8OX1F2evGUqtNsLo6HacMWxPhHuuSZkpDKUvOTDeiPFSjTG8nbtG8CUseW7H2zz2hcd44nhO0Zlj545J7rn9ZvqB0hVlX5Z73pd7flc7B1d7jIXX48I2YPE4Fo9lpfEPm58XOt9hx1y6D8lPPf7qqngVUFVMmmBHd/R+s7oNJeHUsZM89Na385WnnmFxwkUEGo0Gzlm8wo1jJT90cyfuXy0HDtzJ5OShK746y5xhqlXwzvc9zOmZNlrO8RM/8S5+4ed/FnRuYw4iGZ/+i0/ztrd9C4pBjOH/eMMtfM89h5juFBtzjCGIHZlsn9s26rQq8Bdm8zJSPzTG9G64rUOtHpao+pjJGt/yTz7BJ79yFlXloTe9ng+//z9FPbMNLKN6Fcvjq45ntl6ICFp4yrMn1rZdkpC3zpBlGS5JqdeG68KHEGJTYVUSJ1VmbCF15MqhyreKUHMlaeIpvEJ3ltA9RZib25BBmlqdonW+KmkMVeZQF/S8XABd9StlRXifL+g9cmZReG5+vaCUnQ6F+thecCALmrQU51KyrElRtGk0miAmyplR3cQrfyOvalzimNkw1/WrDJUMjAZP8L4KkA9HCBBf+Usf+j4X7rJfymrCSqQp+BBiSVYVoJdeB5GNGJiYauIHfGQ7RKGRKk65GD33byNwof30lUtUkcrQipi+BFDkl0Uyb496I9aiahCJqzO9qOTIerEZiWiXBpKffvLV18WlhAh5UfLZR7/AzPTcikKOxiZ0Xv4yp/7011GmUbXcdvtN7N+3j6CBorCcPlW/iI5Ka4O1KWfOPsXM9CugHslGmHjHP8Q0JyjzDjdcd4gbb7oOLTeoRZsxnJua5uHPfqFKJlg+/P4P8Bcf/Ri1ZmPBd0NQ3nJ4N2+/eT/dNbZ0G4QqbNveoTlSrigzJ+rBJBS3fSva3MZIvcbHP/5x3vuf/zPGGObmpnnbd/19du47hKCcPHGMRz7zCVBotTv8zE/8n9z3ursJnSEt417FhuCrrjbzSiBNE9789Q9VfSyXnzEiKS8+XOcjH3hPPyZTr3vGJgpUA51O4Mzp+uUZNJGD1enMMD19Gl8IzfGch972tTR2XINqPt/PcYOeIQ2ByW0TvP3b3lGx7R0f+Pin+dTzx3D15sLv+sCBsQbOCt2LsqVCre4Zn8hXDG0JATXCyR13UDavRcebvFQ8xwc+exqxllC2+Hs/fy9vfPANuCThTz/wP/i/fvKngRhC+Fs/+L3cZxOQ7vIHeRUXhVdjZpcDCn5mCN2jgqQ1xFjUlNEdVe1PLF/12wxB8KUQ48k9lvzyMj8rCTquVolDgdQK9TQK62YJ+NlZfH0aLbrzO9soiKA+4M9PgzEYa2OtI5As6oLsjZIYqCV2zaTZoFBU1zB2qHIoZXUuWrmDi/apEETRYg7NZ9A8IKFNksTGMZ0SyrKgm+eVMKTSaDQwxjA7O1uJNcKr8+3SwS3XSfpVXB4oyrkXv0K3PYuxCTMvP0utloBuAwXnUnoTyxilUfd9We+yFMpyqduqCs4pSTJ8yRKCkOcXjpVaUc50hBfOQyiUphjKfk3mJX5uKpr/4UMHeMP991Gv1ZZ83ByzfP7oaYo1VBwoUDOwoxGL0FWF8+fb+JBXMUBHlo0sLckKHqwjy+pkzQZpmrJv3z4eeOCBSh7Kc+zYMR555BGyLOOZZ55ZuA9ZWLL2KjYeUpx59tWY2ZWCtRRFzv/4ub/Fy3/5MFhhZGQn193wuqouEXbvnWF8ol2tIHorqpjtPHmizumT9aV1kipMbuuwd99cZQbnv2CMMjuTcOTF0QsGvbc1Un7pz77Mf/nLF1FfMrljG5/96B+xb/8edAgj/1IgpCkhcSwsORdEUv7Nv/53/PzP/d+UZvWFLKpwy4Tnb95akLr5JGP8o2TZGAevfYAkqS+gw2jw2CTjrr//i4wcONyvEOn9G0LgHe94B5/4xCeA2Me1Vhng6elp/vh9v8U3veMbCa3lV+iv4uKwdtWMV7Fh6C1wjC0wrkCcYlyBqh/gMS10rxa4jrp4hdSbYNWfXuH8ku0X9+IcbtW0GqNY0KDYnlvbqza/DDDeY0OvGrOCCJIKQqD0od/4dzUIzLvZ/T6pMk+/MKJYE8Obg9dOK55ZTNzGulFj5ovqRaTf1jBNUwTpZ67j6LXHcHkVlwivxsyuJNQgGIwVjFPExnKe4AvQyiHp0x+GGJxKZaKvxLNkqTVPjem5hlKRQQddoJWEJvu2S3rqNsJlnZUhoIsMeixH8GiI3d41rD4DoBqTB4TKyAyeemUzrRGcEXRArlw1Gk0rUlWALHXTpfrMWouqUlSdmlCtXk6vWrNLiVezmVcSPUtRQQPUth/k8F//YXr8v9ZX/hfHX/4Ki/mAYoRTJ09z5vTpaGhMwsTkdThbwxil3XYc///bO+/oOo7z0P9m2y3olSDYQBJsEjspUhTVbDUrVrFiWZYTx/azItvPViS5yzV2YkUvVuJ37By/PNsvec9x5BMrdixbXYpoFYpqFCl2QmIDQBAUygUu2i27O/P+2AsQBC4aCRbczO8ckMDutJ2Z/Xbmm2++GTh/U9DRcZB0qhvDMHBdg57uQCHt+y6lpfMJh0vGt8tgJB9AZxvf5+rLNxL9m29iWRObZhaFJEuKfcwhR/GZpklrexcP/WoT3d19mIMElkIiDIOy7gdx8guHfQBs2+bIkSOYpklfX4JlFy7m05/8E6SUpNJpLlhUi3LT577echg9MjunDPlSSwiVTKdy9QbCxZXIdJK6pgbadhxEDKyGBRjCoL01Tmt7PUIoLCtKQeFMbCuCUopU0iTRa9E/Kjt8JE5PTwvCyIyyMu+p5wqiedOIRMonsGXK4Fz3G+VLVq5eyepLNjJ0Kj5m3P56HzIgFYbD7t11vPA/f8eBw/XDPiAA6rW9I1rY5ufnY9s2iUSC2TOrufOuvwB8UAq/rxuV1sLsTKKF2bnAMBCmjRAmSJDSQLrBO+K7HkpKPNcFGVibW46BMAPrc+m5KBQCA6F8jH5VzJA5kxACyw5eWkMITAMs44QQ63+RhQoEo2EYKGUiCHRGAI5pBtb4XqZMnjegczsf+o1MpZCpybPbEiEH5XZiSJ+QIbI7E4iMbOcnpSSdDlZF+5JJ/J5Y4ICz385Ge6g5o+gFgLOMEAapRA89sVYM08RLp3EKKimctQQlJZGySjxlBF9xKUmn+0inexCmiWE5RMqrAmEoDPKsFOlICBCYhoVhnTjVSEoX3w9WHAUQKZ+BWVLBUEfUEgMsm2SyE1B4EuLpYOGgozdJpLCIpYsX4Psehfn5WLYJ/crsXEMpHMdm3tw5hMPhcTvgHEoqlWb2zOr+RHOzrs5DhNvZqE0zziKGE+Wdlx7hxR/9DXYkhWnlc8ldD1CxcA0AiaRLa7yP/v2OBx7+Lm2vPwECimav5PJ7fkD+9LmBEaf0kDLwJpHuaOXgr35KsqUZw3KIxxt4t2VfINxkMZd96QGmL79i2DKCoRSb//Gr1L/0GHl5cLxP8NO9IRKewE/28aWvfokP/9lHUX4CA0FFUWGwJSsXe40ITuGKdXXjS3nKM0IpFWHHobQgf3LLpxkVS0/hzzJC4KeTJGLv4kcSGHYRTl4x+RWzgpW2ri782GH6hZnvp/D9JAiFQuIUFOIUlmZGYJlVSSEwsTBMG1AZTxsevpcMVgL9KE5BKXllM0/MRDPtbqIQpo3vJZC+IO0JYn2Q8ATJ3j7saJQZ1VUoty9YlfO8IO8c7Te2ZTKtsjyo11PdxS5EsArrTY6fN8340Dqzc4BhCkIO2A4YdkaXBSCCQ3BDoWDqiBCELAvbECAUVsZCQ2WW/IXITBqFgQAsU+BYJoZpYpsGthm0buCrQSJ9b8D2qd80w7QsLEPhmOCYgdNF6bl4bnDf91yQLsr1GCYJcxEFuN4kDTxzuJ7OQ7RpxtlGCJp7TZ6qV0QLbAzTo+Gh/6Bw0w5AkU6nicfjA2Hbd9TT02QhkcyKKC72BHkEwqivr49EIoEwDHo7OnhibwOtjfVYtk1fXwfdXTYKifQkq5IGMzLx0uk03d3dABQVl/DmsTRbGw0cWxEqLue/f/pWDMshlUqyZsUylO8NlEejOV8ZZKAz2DBzqJHmaJ14LHe3o1mai0HXh/4+dBQwnm/lSGmMVa7xxsmWT7b0Rqs7QX2PxXMtCrctCihU3T8Fe//6Yw9yXiYMB2FGkNJjbaHgDlfQ7+u2u7ublpYWTNOkvT3Gb3bWs6/ubYQwgpUzEUZJRWFU8Wd9Jss4IcyOHz+eMeiUbGlyebLeAt9nybJqnvvK1ygsKkahMFUys6k8W90MrYf+MCO169C4Y/WHsdoiW7+crPYTWf4fbz4jPVu2eso22p1ovx2N0cJna7/+v7O15dB0T7X9stVptjofiWx1JYZOM0f6fTTEkP/HE3a06yOlN5FRwUTKNBlxxns9wEDiA7bIuIK2TMAcJYaLFP3TwxNTRMuycBwH0zRxnMAOzRowKVCAizIUUoUwB8UzTRPbDsLbTnDPEBJPSISfBr8PSzkot99V9Vh1M54+lC3uWOmdykhwMttvtHKMlc9YcU4n7VMNO978spVtsttvrDwnKn+0acZZRoCAcDjE9KpKJtYRFaUlxcRisYxOLdjA3NnZiWmadHV3UVpSzLTKiiEeHwJXNL29vTQ3H8/4RUvS2dkJBIItEg5TPb0KKSVlpSUn7Kt039BMIYTXfTwXF9nPX4RBe0cnhxsaMc3RRmNDognBkfpmfvHQL2ltbUMIged5+BkX1qWlJdx5xyeZO3fGyatwAnr7fH750EPs3luHYQTuatzMqMuXkjs+8VHWr1+H9NNEIiEWzZsblE37rNdMIfQhwGcbJSkvLaa8snRitlqGia8s6vbvo6Gx6SSDTiklM2dMZ+7cGlavvICTjn4zDDq7JM3N32fbtjeH7WNM9PVRXno3a9asQnmJoIiepwWZZsqhVzPPAUopcCfo69kgc1gGww5FkTK4rqQa8CbRjzACwwwlgwNIsh2o4meOQzvhy1/oKaZmyqHtzKYKSlFaXMCNf3QdrW3tQ29SXl5GSUlB4DdrUJsqJXBsuPyySygtLR3mQdX3febMqs5sMtd9QTN1EV5vi55PTBGkEiRckfH6cDICRcQODq/NRsI18OTw8yelVEQdhWXobqCZ2givt1X3Yo1GM+XRPkk0Gk1OYA07hUaj0WimIHoBQKPR5AR6mqnRaHICbWem0WhyAj3N1Gg0OYGeZmo0mpwgM80cyc/SSH7NxvJrNTitofdH8q80kg+j8fqTylbW8fq2mki87L6URi47E7g3lo+okcoznvYbzV/WePLovz+e9hurPkYqw2S131jpj/W8o6U1WjojtV+2thirroamP5qvr2zhsqU1Wl+YSBrj6afjreNsjNanh94fFMtPdmqjWY1GM+XROjONRpMTaOeMGo0mJ9AjM41GkxNoYabRaHICbZqh0WhyAn2iuUajyQkslJZmGo1m6qN1ZhqNJieYmM7sdM8rnShnQ86O55zSXJD3gv+67TfZ6Z4rznZ9nq38JqmdJm5n9l/1hTgfO/d4EQKEgTBEcDKUlCcdJSeB3qSHZRpEQsap7UAZMe8TZRCmifL9yT/GbpwCLe1BXzJFXsTBNsfRoOdjm+eiQDvdfDJxjfOzxSaDUxH52STX2fy8T7TMo4XP3DMsehJptu3Yz7ObtrB5y3aa3+1ACStz3+B4Wyffu/9v+fm//BvCCmdJ9zQ/n4ZJZ7yHFzdvo6OzF4QxjvROp/2GXxOmw/MvvsJn77qH7Tv2gTGeI2NPtf3GG2+s9hutDGPlM4ntlzWdM9F+4y1D9nys7AFyiakm0E4lzgjhDYsjDU3c/8CPePWVrfgYeOkUC2vncu/nP8V7rrgEE0Vfb5LNm9+kt88N0hIiM3rK1nEmXjRh2Pz+0Wd58Ac/4P7v/RU333hNcNDwuNKbPIF2tOk4Tz7+An/ykT+dQNqn2vYT/SiNdv1U59KT0H6jpnsm62+iaQq9AJCzGAbtsU4+/dn72PbmTr5+312854oNHG9p5bvf+yH33Xc/v/zl/2bRwvkIQ2CYDrblZCJPYp/IzCgXLpzLqjUXM7dmTmaWebb7ncCyLIRwME2TMzdy0Jwr9N7MHEUqePg3j7P19W187/6v8dnPfCIYbQlBNC+fOz/zZR555HG++pW7T0QyBEpBIu0jfUlefmiYfg1h4vmSRDKFIQwikRCGOBFGIpBSYFsGiVQaJSURAevXr2Xt2jWYQoHyUULgSRCDOmD/WDA4wzOTp2Hi+4q+RBLTMIlGQ6BO6N2UEngKbNMgkUyDEEQcMzMiNOlLpPE8j0jERBhDOrvu+znFeBQHmimHoKOzmxdffIV5C2u57UM3gfRQ0gfDZEHtPGpmz2DHzn0nYhiBHuv5F17mscefxfM8Nm5cx803XItjm6AkGBaHjxzl0UefZt/bB7Atm0svuYjrrr2SosI8FIJdO/fwymvbWL16Bb9/9Bmqp5Xz8Y/fzpH6d3jyqRe45eb3UVs7l9df28pjT24iEokMlCEccrAsi49/9IMUFhUhhODAwXp+/9jT1NUdIhoNs+Hitdx4wzWEHQshBDt27OGZ/3yJVSuX8vzzL1FWUcHn7/lzlIRXX9vG7x59mlh7nHXrVpFIpBCmeQ7aQ3M20NPMXEQIurp7ON78LosWzqO8rBRkRkclJWVlRXz7G/cipSQYSwkikTAvvPQqL7/8BrXzazhcf5R//9WjGMLg1j9+P6Doindzzxf+koaGo1x00UrqG+p54unnicXj3PGJj2CaJjt31/EP/+tfCIdD9CUSXH/tFaRdl1276/jxj3/GipXLqF1QS31jM0//52aKCguQShIOhThw4AimZfGnt9+MMCz2173DFz7/bd6pb+TyS9axr+4gv/n1Y7zb2sZffPaTALy1ax//4+9+QvX0SnzP5bLL1iOEyZZXt3Lvvd+gO5Fi7Zrl/Oa3T9DW1kFeYQEnjlfUfT+X0COzHEQIgeu6pF2faDg07L5jGlx66cXBH9IHwHVdensT/PLnP2Lt2lW88uob3HLrnTzx1CZuufk6TMvhW9/9e97a9iI/+9k/8b7r3ks67fLhj9zJ448+y20fvJmS4kIs0ySRSLL0wkX880+/T140CsLM6KlsTMMA5XHbB2/gtg99YKBMBw8e5gMfuoMbrr+KwuIy0qkUDz30aza/uo2X/vDvrFixnJaWVj72yXv45//3MLffeiMVlZWYpokQsHrVhTzwva8zvbKUeLyHn//iYdq7uvntwz9hxYoVdMRi3HXvNzl0qD4jw7QgyzWGj8wEp29nlC2NyUh3vHkNvTf4EcdTrpHSHJzeqT7L0HdosurppGcVwe9KDVK2n6zwVr4XRDMNFOCmXa5+z0bWrl0FymfRwloWLZ5PQ+MxOju7KCsr4+abrmXDhjWsX7caKX0Mw2DBwlre3LYT3w+EolQKJ2Tzxc9/ivyCokC/NUzZbqCkB8pFGAZd3X186zsPUpyfz8c/9mFsS+C6cN2172HtRatYvnwZSklKiouYN28ORw4fJZlMDdSfISUfvOX9zKiuAgFdXe0cOnCEa957GStWrADlUVJSxDXXXMkTv38mMKwTMLCVb7x1PrQfiUG/ny5j9blTiXu2mOwyTrReM2lnXwCYLJOUM5HuePMa6d54y3U6q+UTYTLraWjZxmNqJE78Ego7gAIFIcciGomQTKaQUqGUz3uvvJTOeJw/vLCF/fsPIBXs3LkX2xr8TVQIYZAXjQTCVPoZfVyWsggAg4f+7bc8+8zzPPDAN5k/dzZK+lim4NJL19He1sF//PZxDhw8TCqVpq7uING8yIAyXwGGIQiFQijlI4QglU4T7+5hzpwZQRgpEYaJkRH0anA5sv0+HibLcmekNMdzfaJhziRny8pmlLB6mpnDKBW86MMQAmGYmS+fPBFeZoYbgmCngJLB5oHMymAymeRzd3+dV7ZsZenyJVRPn0a8q4fi4oIsmcvh17KUY/uO3fz993/MVVdfwe0fvhnLMoK4QlDf0MRXvvrXPP/Cq6xbv4qK8tJAiT9UOGZGoZlEUUri+z6h0MlTbDXZOw805xV6ASAXURCJhMnLC9Pc0oZSMmMCEbR1V3eCH/34Z/iez3e+/ZUREhk+9HjwBz/h+ede4oc/vJ9bPvBHIATf/u6DvPbadoYPd8Yawhr09qb4xb/+mpSUfONrd5MfjQQrrgjSruRfH/oNr7y+nf/z07/jxhuuxfcl93zxW2z6w+aT0xWDfxEIBIZh4KbdYddPjqT7fi6hnTPmIEopiosLqa2dR93+Axw6dIRg51owIovFOnniiac5Ul8/7jRTiQTPbdrMogsXc8nG9ZhmYJPm+/4pyQUlDJ7b9BLPPPM8X/vyZ1m2dElwQwTl7OntY/fuOtavXcmNN1ybea5gxCWEYEQ/fEriOA4F+Xkca24JkhRBNw/Uh3p0lqtoYZajFORHed/73kt7Wwc/+vH/pT3WEUwthcGTTz1Ha3svN9/4/rET6teRGwa2bRHviNPR0QnC4ODBQ2x9cxeGMIaMesZONBaL8Y8//QVLLljEbR+6CTedxHVdXNdFSokATMugvaOTWKwdgD1763wEXJEAAAzcSURBVNiz5x1CoRC+n10oKSkpLMxnwcJ5bN7yBnv37oeMAH/l1TcxLHuQaYYml7B0w+YoQvD+66/i7rvv4MG//Qe2bd/D4sXzaW1p54UXt3DTjddx6cb1gERKied2k0wm+iOjUMS7e0mn0pkVyjC33XoTX/zyd/nM5+5jzpyZvP76diSKkuJiXNdFAamUS2dnF76UgfpNBDq4VMrF87pw3cDe7bePPMGWzS9zwbKl/Lc7v4DneSipkEry19/5EmvXrOLKKy7h619/gA986M+pmTOLPfveIZlI0dERp729g9mzZ5JKufh+nLTrZUZrgqKifP74lht46snnuPX2z7B+3UqO1B+ltS2G9CVp1x0Iq8kdzO/85be/c64LoTkzmKbJlVdcQu3CeRw+XM/hw40gFHfe8VG+eO+nqKwsAyCddjl6rJ2lFy5i7ZrlQDDCOdrUzNyaWbzn8g2EwiHWrF5OaWkxhw7V09LSzn1fuYtbbrqOnp5e1q1dQUlJMV3xOK7rce1Vl1FcVERmvZGurjgd8STXXH05VVUVtLXFcD1F1bQKLMskGokQDocIR8JcefkGqqdPY/78GioqynjnwBFisTif+/THuO7qy+mMx7nk4jXMmFFFPB4nFk9x/bVXUF01DQi0Y/Nra1iwsJbGo000Hm3missu5p67PklnVzfXXn05M6qnnaNW0ZwphPJdrUTIaQRKCBKJJL29vYTDYQoKCoIVw8Erjhm90qjXhEAq6OrqQSlFSUlR5rbMrHxmlj6D5VBONhTK3Ou/LkZRtA0OIww6O+MopSgqKsTI7B9FykwS/emoIXtIBWDQl0iQSCQoLCzEtvtXcIeE1eQEOSrMzoWF7pnMdxIYqk4Y9jKLTPHVyX8PCzv4+olLw+KNO/0sdTZqfhkhpzgRb0BIZqH/ubOWdVjg4WXRTBmE8j3dehqNZsqjVzM1Gk1OcG6FmV5M0mgmhn5nRuTcO2c81/lrNFMN/c5kRW9n0mg0OYHWmWmmIPoDrBmO9pox1ci2Y2PATOFcmxaI4XJmQvZc4yi/EEgZ2KEZeveKZhBamE0hXF8Sj/fhen5GRigEgoqyAlJpj9e2HWRx7XSqp5eOzwXPZCIEqVSajngisy1JEQnblBTnjWsclUz7bHn9bZYsmM70qhHKLwS79zext+4o11+1goK8MNouTNPPGRJmp+M2czLyzJbPuR61jMT4y9XR0cfvn9pGIpXGskx8X2KaBrffvA5hGDQ2tTNzeukZLNNoZRU0NMV45Ilt5OWFQAg8z2PB3Cou37CIvIgzQrwgWc+TNDTFmD1jpPILWtq6eOmVOq7cuJiC/MjZF9hZOV/7VTbOdlnPbn5ncAHgdNxmTkaek+nC9UwzvnJJpTBMwTVXLmN6ZTGe72MgKCqK0N2TxAnZGOYgP2JC4Lo+vpSEnJMXrvu7WCrtYlsWpiHwlcJ1fRzbOnkKJwSe5+N6HiHHJpu/RwhmlCVFUa6/ZiX50RAdnb08v2Ufe/Y3sW71fPqPunNdD99XhEInyiQEOI6JYZiZ8gXTScPI+OMQwTama668kNq5VQPPqAbl7boetm1iGAa+L3E9n3DIHjbV9aXC9XxCjj3Y7ywy48zS8/xgc71tjXOafL72q2yc7bKevfz0NHOKIQxBUX6YosLIiRdtBDVafWMbO/c04Ho+NbPKWbp4JqGQTXd3gr1vNyGV4uixGBVlhSyaX8X+A820tndTM6ucFRfOJuRYIARt7V1s3XGYnt4U0yqKWLVsDvl54awvumVb5EdDFBVEyM8LUzO7gqPNMS5iPgBHj7WzY3c96bTPrBmlLF0yi0h40Kgt8yw79zbguj7LL5iN41g0H+/grT0NJFMube09rF5eg+NYtLbG2ffOMUKOxdHmDirKCrhg4Qx21zXR2tZF7dxprFo6Z2AfZ2tbF2/uPEx3T4oZVSWsWTmXkGMhfckrWw8QjTq0tffQ1ZNg1bI5zJtTqfdxThH0auaUQiEAo99t9CgK8GPHO3jsme1MKy9k2ZKZbH3rMEca2wBIJtO8vv0wsY5e1q2ax6EjLTz8u9cRhuCCRdVs3XGY+sY2EIK+RJrnXtqLQHDJ2lrqDjTz1u4jgYufLIj+f4VACIFpiIFRXnush2f+sJuigjxWLpvDtl31bN9Vnzny7gTN73byzB92kRcNYzsWSkqe3LSTsGOxZEE1L7/xNrv2NQIQ7+pjyxsH6OlNUVszjbf2NPCrR14l5FjMqi7lsWe2c6ihBYQgmUrzq9+9iudJll8wi9ffOsiml/YCIJVk3zvH2Pza25SX5+PYJo8+vZ3e3uQpt5bm7HLqI7NzpSqYzHwnktaZ2GM+wfz7hdjLW98hPxoinfaonTuNxQuqhwW3bZMrNiyidl4Vvi+pLC+ko7MXpQLlfElRhPVr5lNWWsDSJTM5cORdLlo5j5Bj0XA0Rkt7F7XzptEW68b1fNaumkdJUZSN6xawp+4oyaQ7TA8mhMD1fGIdPaRdl66uBG8fPM6qZTUI4OCRdykujrJ21VzCIYeNFy1k594GVi6dA4BpGvT0JHnuxT2sW1PLkoXBc+3a34QQgrWr55MfDRHr6OFQfQvLlswCoKQ4ykWr5lFUGKUt1k3T8RhrV8zFskx27Wukta2b+TXT2LEnEIBXblxCfl4Y2zZ5/NnttLTOobQkD8/zWLO8hlVLa5hdXc7ufUeJdfYGOsCzrQI+HcbTVxkjzJnmVOtuJHU4p7sD4FypCiYz34k5SJ28tE4pjkIBhXkhCgoi+L4kErEZ3Lr9g7Xy0gJSqWCFUyCId/cxe2bZiTzFwBiKUMiiID8SnGkJ2LYxkE53T4JEIs3u/Y3YpklrrJtk0sP35bCyCwP6EmneeOvQgO5pycIZXJARSl09SUqK87Ct4KzLoqJoIFylxDAMlIKX33gbIQQb1tYOpBvv6SORSrN91xEc2+J4axzPk3iZ4+2EEAO6Qss2CYUcDFNkTm2yBg4y6ejoobysMJgiA9OnFWOaJj29KUpL8pBSEQ7bABimwDSMjBnIKO10vqrLxlOuc132U81/hHhaZzaFUCpoxwsXz2T6tJL+q1nDvtvaxabNe1mysJqqymJa2+Ijnk6kTjrdKJNkRppJpXAci2gkhGEIZkwvIX9+KFCsD01HKvLzQmy4aAH50RCmaRCNOlhmxge/ytiGDRKkg0vk+5L8vDA9vSnqDjQPjLyUDJTxedEQCJgzu5zC/HCgoB/8DMNLhFJqwE22VAwIbCBzloBAnnSy08CSwkAYzdRAC7MpRmBedvILNyyMUhw91k5RYZQVFwZTuFDIGVWPPdKtkG0RciwWz59OQUFk1BjBGZYGhflhigqjw8KEQxadXUl8X2KZBq4XrMYKEQgRw4ANaxfSGe/jhZf3Mau6lOKiPEzTJOzYwQKGYw/KbTRBM/xeNBqi6XgMz/exTDPjctsnEh4umDVTDyMz59A/U+BHKYXvycwyACffIxjZ9AuscMihq6uPpmMxGpvaOXa8A9cLpmVKCTxPDsgaKSW+rzKT2MB0QfrBX1WVxaTSHvsPNNPS2sXeuiZ27m3E9eSQ8gVmX57nD570nnR/7pxptMe6OXDoOE3HO9ixu4GqacXBqingucFIavXyGoqK8njjrcO4rs+CeVX09CbZuaeR4y1x3tx5mN37mzL6vyDPE8+igmfL5O95amCx4sKFM0gm0mzdfphjxzt4fst+qiqLqSgrRCHwfB8/M61UCtyMica5bnf9M74fPTKbQji2TXVVCY4zvNks06CqsohIJIQQgpo5FbzbGue1bQcpLy1gfk0l4ZCNIjitfHpVceBGGijIj1BRXoBpGAghKCvJJxy2EQjy8kKsX13LnrqjHD3WDkKw/IJZJ03X+olGQ1RXlWCZZtbyV1UWcdHKuex75xggKCqIsGZFDZZl4nmS6dOKB8w0Lrt4Ebv3NdLbl6SirIBL1y+i7mAzDU3tmIbB6hU1CCGIRkLMrC4dmMqWFAW6r/7ZYXVVCcWFUQAqygt431Ur2LW3kcZjMfIiDhvXLcFxLHxfMmtGGYX5QVjbsqiZXaFHbVMIofQxz1MGKRXptIfjWMNOKlcquGdZJmbmxU6nPRIpl5BtYZoGKqP/klKRdr3AODajqPczeikhyJx0JLAtcyDfZCqN6/rYtkk47GTdF9lvqBpyrBF1TVIq+hLpYPEibA8I5qHll1KRSrs4jjWgiE8k03iexHFMwiEHIYI8065HOBQcIee6PlJKQhmdXjLlYprGwLMopUgk0ni+JByyT/owJJJpbMvEsswgXNIlFLKyCm7N+YcWZhqNJifQnxyNRpMTaGGm0WhyAi3MNBpNTqCFmUajyQm0MNNoNDmBFmYajSYn0MJMo9HkBFqYaTSanEALM41GkxP8f3Ys7ETI5bfSAAAAAElFTkSuQmCC;" vertex="1" parent="1">
          <mxGeometry x="480" y="484.34" width="260" height="282.02" as="geometry" />
        </mxCell>
        <mxCell id="J2iS7uUSkjCVjI6-2-KG-18" value="" style="group" vertex="1" connectable="0" parent="1">
          <mxGeometry x="517" y="762" width="190" height="20" as="geometry" />
        </mxCell>
        <mxCell id="J2iS7uUSkjCVjI6-2-KG-15" value="&lt;font style=&quot;font-size: 14px;&quot;&gt;Type&lt;/font&gt;" style="text;strokeColor=none;fillColor=none;html=1;fontSize=14;fontStyle=1;verticalAlign=middle;align=center;" vertex="1" parent="J2iS7uUSkjCVjI6-2-KG-18">
          <mxGeometry width="70" height="20" as="geometry" />
        </mxCell>
        <mxCell id="J2iS7uUSkjCVjI6-2-KG-16" value="&lt;font style=&quot;font-size: 14px;&quot;&gt;Type&lt;/font&gt;" style="text;strokeColor=none;fillColor=none;html=1;fontSize=14;fontStyle=1;verticalAlign=middle;align=center;" vertex="1" parent="J2iS7uUSkjCVjI6-2-KG-18">
          <mxGeometry x="60" width="70" height="20" as="geometry" />
        </mxCell>
        <mxCell id="J2iS7uUSkjCVjI6-2-KG-17" value="&lt;font style=&quot;font-size: 14px;&quot;&gt;Type&lt;/font&gt;" style="text;strokeColor=none;fillColor=none;html=1;fontSize=14;fontStyle=1;verticalAlign=middle;align=center;" vertex="1" parent="J2iS7uUSkjCVjI6-2-KG-18">
          <mxGeometry x="120" width="70" height="20" as="geometry" />
        </mxCell>
      </root>
    </mxGraphModel>
  </diagram>
</mxfile>
